<svg preserveAspectRatio="none" width="100%" height="100%" overflow="visible" style="display: block;" viewBox="0 0 102 224" fill="none" xmlns="http://www.w3.org/2000/svg">
<path id="Vector left" d="M60.4521 0H8.30957C3.72269 0 0 3.71097 0 8.28341V215.717C0 220.289 3.72269 224 8.30957 224H93.6904C98.2773 224 102 220.289 102 215.717V41.417C102 18.5466 83.4032 0 60.4521 0ZM65.6373 126.587C67.5568 126.587 69.3766 126.206 71.0552 125.543C66.7009 131.946 59.3387 136.146 50.9958 136.146C37.6174 136.146 26.7651 125.336 26.7651 111.992C26.7651 98.6471 37.6091 87.8373 50.9958 87.8373C59.3387 87.8373 66.7009 92.0453 71.0552 98.44C69.3766 97.7691 67.5485 97.3963 65.6373 97.3963C57.5521 97.3963 50.9958 103.932 50.9958 111.992C50.9958 120.051 57.5521 126.587 65.6373 126.587Z" fill="var(--fill-0, #F4F2EC)"/>
</svg>
