<svg width="548.35" height="47.49" viewBox="0 0 548.35 47.49" fill="none" xmlns="http://www.w3.org/2000/svg" preserveAspectRatio="xMidYMid meet">
<g id="design" clip-path="url(#clip0_0_6)">
<path id="Vector" d="M0 0.96H11.2C16.75 0.96 21.34 2.09 24.99 4.35C28.64 6.61 31.3 9.49 32.99 12.99C34.68 16.49 35.52 20.14 35.52 23.93C35.52 28.37 34.51 32.29 32.48 35.71C30.45 39.12 27.74 41.76 24.35 43.61C20.96 45.47 17.3 46.39 13.37 46.39H0V0.96ZM12.54 43.39C16.21 43.39 19.55 42.59 22.56 40.99C25.57 39.39 27.95 37.11 29.7 34.14C31.45 31.18 32.32 27.71 32.32 23.74C32.32 20.2 31.52 16.92 29.92 13.92C28.32 10.91 25.96 8.51 22.85 6.72C19.73 4.93 16 4.03 11.65 4.03H3.14V43.39H12.55H12.54Z" fill="#FFC100"/>
<path id="Vector_2" d="M139.13 0.96V3.97H114.23V22.02H136.63V25.03H114.23V43.4H140.02V46.41H111.09V0.96H139.12H139.13Z" fill="#FFC100"/>
<path id="Vector_3" d="M233.6 4.22C231.72 3.71 229.89 3.45 228.1 3.45C225.11 3.45 222.72 4.19 220.93 5.66C219.14 7.13 218.24 9.02 218.24 11.32C218.24 12.94 218.72 14.32 219.68 15.45C220.64 16.58 221.87 17.52 223.36 18.27C224.85 19.02 226.77 19.84 229.12 20.73C231.68 21.67 233.8 22.63 235.49 23.61C237.18 24.59 238.59 25.93 239.75 27.61C240.9 29.3 241.48 31.46 241.48 34.11C241.48 36.76 240.88 38.86 239.69 40.8C238.49 42.74 236.82 44.25 234.67 45.31C232.52 46.37 230.05 46.91 227.28 46.91C222.46 46.91 217.68 45.35 212.94 42.24L214.41 39.68C215.99 40.87 217.93 41.92 220.23 42.82C222.53 43.72 224.77 44.16 226.95 44.16C228.87 44.16 230.69 43.79 232.42 43.04C234.15 42.29 235.56 41.16 236.64 39.65C237.73 38.14 238.27 36.31 238.27 34.18C238.27 32.18 237.77 30.49 236.77 29.12C235.77 27.76 234.51 26.66 232.99 25.82C231.47 24.98 229.57 24.15 227.26 23.29C224.7 22.35 222.59 21.44 220.92 20.57C219.26 19.7 217.86 18.53 216.73 17.08C215.6 15.63 215.03 13.82 215.03 11.64C215.03 9.46 215.57 7.62 216.66 5.98C217.75 4.34 219.26 3.06 221.2 2.14C223.14 1.22 225.31 0.74 227.7 0.7C229.75 0.7 231.87 0.98 234.07 1.53C236.27 2.09 238.22 2.79 239.93 3.64L238.71 6.07C237.17 5.35 235.47 4.73 233.59 4.21L233.6 4.22Z" fill="#FFC100"/>
<path id="Vector_4" d="M320.32 0.96V46.4H317.18V0.96H320.32Z" fill="#FFC100"/>
<path id="Vector_5" d="M426.78 45.82C424.11 46.55 421.63 46.91 419.32 46.91C414.67 46.91 410.57 45.91 407.03 43.9C403.49 41.9 400.75 39.16 398.81 35.71C396.87 32.25 395.9 28.39 395.9 24.13C395.9 19.61 396.95 15.54 399.04 11.94C401.13 8.33 403.95 5.52 407.49 3.49C411.03 1.46 414.91 0.45 419.14 0.45C423.71 0.45 427.86 1.56 431.62 3.78L430.47 6.6C428.93 5.7 427.18 4.98 425.22 4.42C423.26 3.87 421.34 3.59 419.46 3.59C415.66 3.59 412.21 4.48 409.09 6.25C405.97 8.02 403.53 10.45 401.76 13.55C399.99 16.64 399.1 20.11 399.1 23.95C399.1 27.79 399.94 31.1 401.63 34.13C403.31 37.16 405.68 39.54 408.73 41.27C411.78 43 415.29 43.86 419.26 43.86C421.09 43.86 422.99 43.64 424.96 43.19C426.92 42.74 428.59 42.13 429.95 41.37V28.76H419.71V25.75H433.09V43.22C431.55 44.24 429.45 45.12 426.79 45.84L426.78 45.82Z" fill="#FFC100"/>
<path id="Vector_6" d="M548.35 0.96V47.49H548.22L513.21 8.07L513.27 46.41H510.2V0H510.39L545.4 39.74L545.34 0.96H548.35Z" fill="#FFC100"/>
</g>
<defs>
<clipPath id="clip0_0_6">
<rect width="548.35" height="47.49" fill="white"/>
</clipPath>
</defs>
</svg>
