<svg preserveAspectRatio="none" width="100%" height="100%" overflow="visible" style="display: block;" viewBox="0 0 107.917 237.435" fill="none" xmlns="http://www.w3.org/2000/svg">
<path id="Vector" d="M63.9587 0H8.79157C3.93862 0 0 3.93354 0 8.78022V228.654C0 233.501 3.93862 237.435 8.79157 237.435H99.125C103.978 237.435 107.917 233.501 107.917 228.654V43.9011C107.917 19.6589 88.241 0 63.9587 0ZM63.3081 134.179C65.339 134.179 67.2643 133.775 69.0402 133.073C64.4334 139.86 56.6441 144.312 47.8173 144.312C33.6629 144.312 22.1811 132.853 22.1811 118.709C22.1811 104.564 33.6541 93.1054 47.8173 93.1054C56.6441 93.1054 64.4334 97.5658 69.0402 104.344C67.2643 103.633 65.3302 103.238 63.3081 103.238C54.7539 103.238 47.8173 110.165 47.8173 118.709C47.8173 127.252 54.7539 134.179 63.3081 134.179Z" fill="var(--fill-0, #FFC100)"/>
</svg>
