<svg preserveAspectRatio="none" width="100%" height="100%" overflow="visible" style="display: block;" viewBox="0 0 325.92 271.166" fill="none" xmlns="http://www.w3.org/2000/svg">
<path id="Vector" d="M275.8 0.165919C275.8 0.165919 219.68 -0.834081 186.97 2.07592C182.62 0.845919 178.03 0.165919 173.29 0.165919C173.29 0.165919 143.95 -0.354081 115.33 0.455919C114.58 0.275919 113.8 0.165919 112.99 0.165919H10.02C4.48999 0.165919 0 4.65592 0 10.1859V221.056C0 248.726 22.43 271.166 50.11 271.166H113C118.53 271.166 123.02 266.676 123.02 261.146V30.6259C132.08 34.9559 138.32 40.8959 138.32 50.2759V271.166H213.39C218.92 271.166 223.41 266.676 223.41 261.146V50.2659C223.41 42.0759 221.43 34.3559 217.95 27.5359C230.92 32.0959 240.83 38.4559 240.83 50.2659V271.156H315.9C321.43 271.156 325.92 266.666 325.92 261.136V50.2659C325.92 22.5959 303.49 0.155919 275.81 0.155919L275.8 0.165919ZM59.55 119.286L30.01 135.656V135.796L59.55 152.026V156.986L25.2 137.566V133.736L59.55 114.316V119.276V119.286Z" fill="var(--fill-0, #FFC100)"/>
</svg>
