<svg preserveAspectRatio="none" width="100%" height="100%" overflow="visible" style="display: block;" viewBox="0 0 1280 832" fill="none" xmlns="http://www.w3.org/2000/svg">
<path id="Subtract" d="M1280 832H0V0H1280V832ZM77.7002 651.83L77.4404 651.96L77.1201 651.76L76.6699 651.96L76.2305 651.89L75.9102 651.83L75.5898 651.96L75.3301 651.89H72.0703L71.4902 651.96L70.9805 651.83L70.5996 651.96L70.2695 652.47L70.21 654.39L70.1504 657.46V659.89L70.21 662V663.67L70.2695 665.39V666.87L70.1504 667.95L69.8896 671.279L69.8301 672.5L69.7598 674.1L69.8896 674.67L69.8301 675.25L70.0195 675.76V677.359L69.96 678.189L70.0195 679.02V683.89L70.1504 685.17L69.96 685.81L70.0195 686.51V687.47L70.0801 688.24V688.5L70.0195 689.26V690.859L69.96 691.12L70.1504 691.569V692.529L69.8896 693.04V693.359L69.7002 693.68V694.26L69.7598 694.899L70.0801 695.34L70.21 696.18L70.5303 696.939L70.8496 697.39L71.1699 697.33L71.8799 697.46L72 698.29V699.76L72.1299 699.7L72.2598 699.18L72.3896 698.35L72.5195 697.899L72.8398 697.779L73.0898 697.649L73.2197 697.84V698.35L73.3496 698.67H73.4102L73.54 698.16L73.5996 697.39L73.8604 697.14L74.1797 697.33L74.3096 697.58L74.3701 697.52L74.4404 697.33L74.9502 696.819L75.1396 696.56H75.4004L75.5898 697.2V697.52L75.7197 696.939L75.9102 696.56L76.0996 696.62L76.3496 696.819L76.6699 696.689L76.8701 696.75H76.9902L77.3096 696.56L77.6299 696.689L77.8896 696.62L78.0195 696.24L78.4697 695.979L78.8496 696.05L79.2998 695.729L79.6201 695.34L79.6797 694.7L79.9404 693.81L80 693.17L80.1299 691.5L80.1904 689.649L80.3203 688.43V686.83L80.4502 685.74V684.399L80.5098 682.35V680.43L80.4502 678.899L80.3896 676.979L80.2598 675.63L80 674.42V673.33L80.1299 673.069L79.8701 672.88V672.109L79.9404 671.47L79.8701 671.149V670.899L80.0703 670.64V670.39L79.8701 670.26L79.8096 669.87L79.75 669.43V669.229L79.8701 668.979H80.0703L80.1299 668.529V668.149L80 668.02L79.8096 667.95L79.75 667.63V666.99L79.8701 666.67L80.0703 666.609L80.1904 666.29L80.3203 665.649V663.67L80.2598 663.279L80.0703 662.83L79.9404 662.51L80.0703 662.45L80.3896 662.319L80.4502 661.939V661.87L80.3896 661.939H80.1904L80.1299 661.75L80.2598 661.3L80.3203 660.47L80.2598 659.51V658.67L80.1904 657.779L80.2598 656.819L80.1904 656.109V654.52L80.1299 653.3L80.0703 651.96L79.6201 651.83L79.2305 651.96H78.79L78.21 651.7L77.7002 651.83ZM466.11 651.83L465.86 651.96L465.54 651.76L465.09 651.96L464.64 651.89L464.32 651.83L464 651.96L463.74 651.89H460.48L459.9 651.96L459.39 651.83L459.01 651.96L458.69 652.47L458.63 654.39L458.56 657.46V659.89L458.63 662V663.67L458.69 665.39V666.87L458.56 667.95L458.31 671.279L458.24 672.5L458.18 674.1L458.31 674.67L458.24 675.25L458.43 675.76V677.359L458.37 678.189L458.43 679.02V683.89L458.56 685.17L458.37 685.81L458.43 686.51V687.47L458.5 688.24V688.5L458.43 689.26V690.859L458.37 691.12L458.56 691.569V692.529L458.31 693.04V693.359L458.11 693.68V694.26L458.18 694.899L458.5 695.34L458.63 696.18L458.94 696.939L459.27 697.39L459.59 697.33L460.29 697.46L460.42 698.29V699.76L460.55 699.7L460.67 699.18L460.8 698.35L460.93 697.899L461.25 697.779L461.51 697.649L461.63 697.84V698.35L461.76 698.67H461.82L461.95 698.16L462.02 697.39L462.27 697.14L462.59 697.33L462.72 697.58L462.78 697.52L462.85 697.33L463.36 696.819L463.55 696.56H463.81L464 697.2V697.52L464.13 696.939L464.32 696.56L464.51 696.62L464.77 696.819L465.09 696.689L465.28 696.75H465.41L465.73 696.56L466.05 696.689L466.31 696.62L466.43 696.24L466.88 695.979L467.27 696.05L467.71 695.729L468.03 695.34L468.1 694.7L468.35 693.81L468.42 693.17L468.54 691.5L468.61 689.649L468.74 688.43V686.83L468.86 685.74V684.399L468.93 682.35V680.43L468.86 678.899L468.8 676.979L468.67 675.63L468.42 674.42V673.33L468.54 673.069L468.29 672.88V672.109L468.35 671.47L468.29 671.149V670.899L468.48 670.64V670.39L468.29 670.26L468.23 669.87L468.16 669.43V669.229L468.29 668.979H468.48L468.54 668.529V668.149L468.42 668.02L468.23 667.95L468.16 667.63V666.99L468.29 666.67L468.48 666.609L468.61 666.29L468.74 665.649V663.67L468.67 663.279L468.48 662.83L468.35 662.51L468.48 662.45L468.8 662.319L468.86 661.939V661.87L468.8 661.939H468.61L468.54 661.75L468.67 661.3L468.74 660.47L468.67 659.51V658.67L468.61 657.779L468.67 656.819L468.61 656.109V654.52L468.54 653.3L468.48 651.96L468.03 651.83L467.65 651.96H467.2L466.62 651.7L466.11 651.83ZM760.13 651.83L759.87 651.96L759.55 651.76L759.1 651.96L758.66 651.89L758.34 651.83L758.021 651.96L757.76 651.89H754.5L753.92 651.96L753.41 651.83L753.021 651.96L752.7 652.47L752.64 654.39L752.58 657.46V659.89L752.64 662V663.67L752.7 665.39V666.87L752.58 667.95L752.32 671.279L752.26 672.5L752.19 674.1L752.32 674.67L752.26 675.25L752.45 675.76V677.359L752.38 678.189L752.45 679.02V683.89L752.58 685.17L752.38 685.81L752.45 686.51V687.47L752.51 688.24V688.5L752.45 689.26V690.859L752.38 691.12L752.58 691.569V692.529L752.32 693.04V693.359L752.13 693.68V694.26L752.19 694.899L752.51 695.34L752.64 696.18L752.96 696.939L753.28 697.39L753.6 697.33L754.3 697.46L754.43 698.29V699.76L754.56 699.7L754.69 699.18L754.82 698.35L754.94 697.899L755.26 697.779L755.521 697.649L755.65 697.84V698.35L755.78 698.67H755.84L755.97 698.16L756.03 697.39L756.29 697.14L756.61 697.33L756.74 697.58L756.8 697.52L756.86 697.33L757.38 696.819L757.57 696.56H757.82L758.021 697.2V697.52L758.14 696.939L758.34 696.56L758.53 696.62L758.78 696.819L759.1 696.689L759.3 696.75H759.42L759.74 696.56L760.06 696.689L760.32 696.62L760.45 696.24L760.9 695.979L761.28 696.05L761.73 695.729L762.05 695.34L762.11 694.7L762.37 693.81L762.43 693.17L762.56 691.5L762.62 689.649L762.75 688.43V686.83L762.88 685.74V684.399L762.94 682.35V680.43L762.88 678.899L762.81 676.979L762.69 675.63L762.43 674.42V673.33L762.56 673.069L762.3 672.88V672.109L762.37 671.47L762.3 671.149V670.899L762.5 670.64V670.39L762.3 670.26L762.24 669.87L762.18 669.43V669.229L762.3 668.979H762.5L762.56 668.529V668.149L762.43 668.02L762.24 667.95L762.18 667.63V666.99L762.3 666.67L762.5 666.609L762.62 666.29L762.75 665.649V663.67L762.69 663.279L762.5 662.83L762.37 662.51L762.5 662.45L762.81 662.319L762.88 661.939V661.87L762.81 661.939H762.62L762.56 661.75L762.69 661.3L762.75 660.47L762.69 659.51V658.67L762.62 657.779L762.69 656.819L762.62 656.109V654.52L762.56 653.3L762.5 651.96L762.05 651.83L761.66 651.96H761.22L760.64 651.7L760.13 651.83ZM813.12 650.229H812.61L812.22 650.35H811.521L811.01 650.55L810.5 650.479L810.11 650.609L809.66 650.55L809.09 650.8L808.19 651L807.49 651.189L807.23 651.12L805.76 651.51L803.521 652.6L802.62 653.17L801.6 654.069L800.64 654.83L799.23 656.239L798.85 656.5L798.53 657.2L797.76 658.609L797.25 659.51L796.8 660.02L796.42 661.43L796.03 662.45L795.9 663.149L795.65 664.05L795.46 664.56L795.2 665.2V666.16L794.94 666.67L795.14 666.87L795.01 667.31L794.75 667.76L794.88 668.02L794.82 668.66L794.88 669.359L794.82 669.75L794.56 670.51L794.62 671.67L794.43 672.5V674.8L794.3 675.569L794.62 677.17L795.14 679.41L795.2 680.75L795.39 681.39L795.521 682.739L795.9 684.21L796.03 685.229L796.22 685.739L796.35 686.319L796.54 686.58L796.67 686.899L796.61 687.279L796.8 687.859L797.25 688.819L797.7 690.1L798.34 690.859L798.59 691.31L798.85 691.89L799.36 692.91L800.06 693.81L800.32 694.189L800.771 694.38L801.54 695.22L802.69 696.3L803.33 696.819L803.521 697.01L803.97 697.069L804.29 697.46L804.99 697.649L805.89 698.1L806.46 698.29L807.04 698.54L807.94 698.93H808.58L810.3 699.25L810.69 699.569L810.75 699.38H811.14L811.771 699.18L812.54 699.31L813.25 699.18L813.95 699.31L814.78 699.25H815.36L815.87 699.38L816.64 699.25L817.15 698.93H817.6L818.11 698.8H818.62L818.94 698.42L819.71 697.97L820.35 697.58L820.67 697.26L821.63 696.689L823.1 695.47L824.13 694.38L824.64 693.739L825.15 693.04L825.41 692.529L825.53 692.34L825.98 691.439L826.37 690.35L826.81 690.1L827.01 689.2L827.07 687.859L827.33 686.58V684.66L827.26 683.38L827.13 681.33V680.18L827.2 678.26L827.33 675.569V673.59L827.39 671.67L827.26 670.13L827.07 669.62L826.56 669.55L825.98 669.68H825.6L825.15 669.62L824.89 669.75L824.45 669.68L823.81 669.81L823.29 669.75L822.91 670L822.53 669.81H820.86L819.33 669.75L818.69 669.81H817.021L814.72 669.87L812.48 670L810.62 670.39L809.73 670.77L809.66 670.96L809.54 671.54L809.66 671.989L809.54 672.239L809.41 673.649L809.54 674.029V674.8L809.6 675.25L809.54 675.51L809.47 676.02L809.54 676.47L809.47 676.72V677.1L809.54 677.81L809.34 678.51L809.41 678.96V679.22L809.34 679.47L809.6 679.859L809.54 679.979L809.41 680.109L809.47 680.239L809.98 680.31L811.9 680.05L816.51 679.54L817.09 679.6L817.21 680.05V681.33L817.41 683.25L817.53 685.42L817.6 686.83L817.53 687.279L816.96 687.92L816.32 688.43L815.68 688.689L814.72 688.819L813.89 688.88L813.06 688.819L811.771 688.43L810.62 687.92L809.47 687.47L808 686.319L807.3 684.91L806.78 683.819L806.271 682.42L805.82 681.069L805.57 680.05L805.31 678.83L804.99 677.229L804.86 675.38V674.93L804.74 673.84L804.61 672.37L804.74 671.67L804.86 670.45L804.99 669.109L805.06 667.95L805.38 666.609L806.08 664.43L807.04 662.51L808 661.62L809.34 660.79L810.56 660.399L810.81 660.08L811.2 659.95L812.22 659.83L813.12 659.7L813.44 659.76V659.83L813.38 659.89L813.76 660.02L815.36 660.08L817.15 660.47L817.98 660.85L818.88 661.43L819.71 662L819.84 661.939H820.22L820.61 661.55L820.93 661.359L821.12 661.109L821.37 660.85L821.69 660.21L822.08 660.08L822.14 659.7L822.46 659.439L822.65 659.12H823.17L823.04 658.739L823.17 658.29L823.42 658.35H823.55L823.61 658.29L823.55 658.029L824 657.779L824.25 657.399V656.95L824.51 656.75L824.83 656.56L824.89 656.05L825.15 655.729L825.6 655.41L825.85 654.83L825.98 654.45L825.85 654.13L825.28 653.68L823.74 652.66L822.53 651.96L821.18 651.38L820.48 651.12L819.65 651L819.2 650.87L817.6 650.55L817.09 650.35L816.64 650.29L814.65 650.16H813.63L813.12 650.229ZM189.38 651.89L188.74 651.76L188.16 651.83L187.78 651.7L187.46 651.96L187.33 652.02L187.07 651.83H186.82L186.44 651.7L186.11 651.89L185.73 651.76L185.28 651.83L185.09 651.76L184.45 651.83L184.07 652.21V653.109L184 654.71L183.88 656.75L183.75 657.97L183.62 660.34L183.49 661.489L183.43 662.58V664.689L183.36 665.97V667.83L183.23 670.319L183.17 672.31V673.97L183.11 675.51L182.98 677.87L182.92 679.279V681.27L183.04 682.1L183.11 683.76V686L183.3 688.109L183.81 689.84L184.13 690.859L184.71 691.89L185.35 693.17L185.99 693.87L186.56 694.58L187.65 695.54L189.38 696.5L190.72 697.39L192.13 698.029L193.41 698.35L193.86 698.609H197.44L200 698.67H200.45L200.77 698.479L201.35 698.35L202.31 698.16L203.14 697.779L204.42 697.33L205.44 696.939L206.66 696.37L207.17 696.05L207.62 695.6L208.45 695.09L209.67 694.38L210.5 693.489L211.27 692.529L212.48 691.18L213.44 689.39L214.08 688.109L214.53 687.09L214.66 686.06L214.98 684.399L215.1 682.1V680.939L215.23 680.18V673.91L215.17 671.729L215.1 669.17V666.87L215.23 662.51V655.729L215.1 653.359V652.02L214.72 651.83L214.21 651.96L212.67 651.76L211.78 651.89L211.27 651.83L209.35 651.96L209.02 651.76L208.64 651.96L208.32 651.83L208.06 651.89L207.75 651.83L207.3 652.02L206.66 651.89L206.08 651.83L205.63 652.02L205.31 652.08L205.19 652.34L205.25 652.79L205.38 653.229L205.25 654L205.44 654.64L205.31 655.279L205.51 655.92V656.5L205.44 657.97L205.51 659.89V661.43L205.44 662.71L205.51 663.79L205.44 664.56L205.38 665.069L205.31 666.35V672.43L205.38 673.649V677.17L205.25 678.96V680.37L205.38 680.63L205.25 681.33L205.12 682.67L204.99 683.89L204.55 685.42L203.91 686.77L203.39 687.41L202.88 687.6L201.86 688.3L200.77 688.88L199.68 688.939L198.53 688.689L197.38 688.5L195.52 688.05L194.31 687.09L193.47 686.26L193.22 685.1L193.09 684.34L193.22 683.25L193.35 681.01L193.47 678.13L193.6 675.89L193.67 674.989L193.73 674.29V666.609L193.6 665.069L193.67 664.5V663.6L193.73 661.62L193.79 659.12V657.649L193.86 656.63L193.92 654.52V652.66L193.79 651.83L193.35 651.76L192.58 651.83L192.07 651.7H191.75L191.23 651.64L190.79 651.7L190.27 651.76L190.02 651.64H189.76L189.38 651.89ZM893.05 652.149H892.41L891.9 652.21L891.39 652.149L890.49 652.27H889.92L889.4 652.47L888.83 652.399L888.44 652.529L888.06 652.399L887.68 652.47H884.99L884.35 652.66L884.29 653.229L884.09 654.64L884.16 656.5L884.09 658.479L883.97 662.319L883.9 663.79L883.97 664.18L883.9 664.689L883.84 665.33L883.9 666.16L883.771 666.99V667.7L883.97 668.34L883.65 669.62L883.84 670.13L883.771 670.96L883.9 671.47V671.99L883.84 672.689L883.771 673.33L883.84 673.649L883.771 674.16V674.87L883.65 674.93L882.88 673.71L882.24 672.63L881.021 670.64L880.19 668.91L878.97 666.67L876.8 663.09L875.45 660.79L874.75 659.7L874.11 658.55L872.64 656.18L871.23 654.069L870.21 652.66L869.5 652.149L869.12 652.34L868.8 652.27L868.35 652.34L867.9 652.27H867.521L867.26 652.399L867.01 652.34L866.62 652.27L866.37 652.47H865.85L865.34 652.34L864.771 652.399L864.25 652.47L864 652.66L863.23 652.399L862.91 652.529L862.53 652.47H862.021L861.37 652.529L860.73 652.399L860.1 652.529L859.771 652.66L859.71 652.85V654L859.521 656.24L859.45 657.33L859.33 658.93L859.26 659.569L859.14 660.59L859.01 662.319L858.94 663.279V664.75L858.88 666.93L858.81 669.3L858.75 671.99L858.88 675.569L858.94 678.13L858.81 680.88L858.88 683.5V684.529L858.94 686.189L858.81 687.6L858.94 689.14L858.81 690.609V691.7L858.94 692.46V693.62L858.88 694.58L859.2 695.279L859.771 695.22L859.97 695.47L859.9 695.66L859.65 695.859L859.2 696.05L858.88 696.75V697.649L859.26 697.899L859.58 698.029L859.9 697.899L860.29 697.97H860.86L861.37 698.029L861.57 697.899L861.76 698.029H861.95L862.21 697.52L862.4 697.58L862.85 697.899L863.36 697.52L863.87 697.26L864.13 697.33L864.51 697.2L865.021 697.14L865.41 697.01L865.92 696.939L866.62 696.819L867.2 696.75L867.58 696.56L867.9 696.43V695.92L867.71 695.41L867.45 695.47V695.22L867.39 694.58L867.26 693.939L867.45 693.62L867.58 693.3L867.39 693.17L867.26 693.229L867.2 692.91L867.33 692.399L867.26 692.27L867.13 692.08L867.07 692.02L866.88 691.7L867.07 691.25L867.521 691.12L867.9 690.99L867.97 690.67V690.609H867.9L867.771 690.67L867.58 690.74L867.45 690.54L867.26 690.29L867.33 689.97L867.84 689.779L867.97 689.26L868.03 688.939L867.9 688.43L868.03 688.05L868.09 687.79L868.03 687.54L867.9 687.149L868.16 686.83L868.22 685.49V682.99L868.29 681.779V678.39L868.41 676.79L868.35 675.38L868.41 674.29V670.13L868.48 669.75H868.61L868.67 669.87L869.37 670.96L870.01 671.99L870.97 673.71L872.06 675.89L873.6 678.319L874.3 679.47L875.33 681.33L876.22 682.99L876.67 684.02L877.89 686.189L879.17 688.56L879.81 689.899L880.51 691.12L881.41 693.1L883.26 696.5L883.771 696.939L884.09 697.069L884.35 696.88L884.73 697.01L885.37 696.75L885.76 696.819L886.01 697.649L886.2 698.54H886.4L886.521 697.97L886.65 697.33L886.85 697.01L886.97 697.069L887.04 697.14L887.16 697.46H887.48L887.74 697.069L888.06 697.14L888.38 697.52L888.7 697.58L889.21 697.069L889.73 697.2L889.79 697.33L889.92 697.2L890.11 696.939L890.36 697.01L890.69 697.2L890.88 697.26L891.26 697.01L891.84 697.069L892.28 697.01L892.67 696.88L892.86 695.979V694.38L893.05 692.399L893.12 690.99V690.42L893.18 689.52V687.859L893.24 686.77L893.31 685.359V683.12L893.18 681.27V679.979L893.24 677.55L893.31 675.569L893.37 673.52V672.31L893.44 670.26L893.56 668.34L893.63 666.99L893.69 665.84L893.82 663.67L893.88 662.39L894.01 660.08L894.08 658.229L894.2 655.92V653.43L894.271 652.399V652.27L893.95 652.21L893.56 652.08L893.05 652.149ZM579.88 651.51H579.11L578.73 651.45L578.35 651.58L577.84 651.52L576.82 651.71H576.24L575.79 651.84L575.53 651.899L575.271 651.84L575.01 651.899L574.88 651.77H574.3L573.6 651.96L573.09 652.02L572.64 652.08L572 652.02L570.98 652.21L570.79 652.85L570.73 653.3V654.52L570.67 655.29V657.34L570.41 659.899L570.22 662.97V664.7L570.16 667.64L570.1 673.14V675.89L570.04 677.359V679.22L570.1 680.37V682.42L570.16 684.399V685.87L570.22 686.96L570.28 688.5L570.47 689.27L570.41 689.529L570.54 690.17L570.48 690.81L570.61 691.26L570.48 691.52V692.74L570.67 693.51L570.54 694.21L570.67 694.34L570.73 694.66L570.47 695.17L570.34 696L570.47 696.77L571.11 696.96H572.39L573.09 697.149H573.67V697.6L573.73 698.109L573.86 698.05V697.67L573.92 697.22L574.56 697.029L575.07 696.649L575.13 696.84L575.45 697.029L575.96 697.09L576.86 697.029L577.56 697.09L577.94 696.899L578.64 697.09H579.15L579.6 697.149L580.11 697.02H580.56L582.29 697.149L582.8 697.02L583.63 697.08L584.33 697.14L583.88 697.33L583.24 697.2H582.98L582.92 697.26L582.86 697.52L583.44 697.58L583.95 697.64L583.63 697.7L583.12 697.76L582.93 697.819L583.06 697.95L583.38 698.01L584.72 697.95L585.1 697.89V697.7L584.97 697.319L585.23 696.939H585.55L585.93 696.88L586.38 696.819L586.64 697.01L586.38 697.46L586.12 697.72V697.85L586.76 697.91L588.04 697.779L589.51 697.59L590.98 697.27L592.07 697.01L592.771 696.56L593.22 696.5L593.73 696.18L594.37 695.859L594.75 695.729L595.71 695.09L596.41 694.58L596.79 694L597.69 693.3L598.07 692.66L598.771 691.83L599.73 690.68L600.24 689.46L600.88 688.5L601.2 687.8L601.78 686.58L602.68 684.6L603.19 682.87L603.45 681.779L603.771 680.24L603.96 678.83L604.15 677.55L604.09 675.37L603.96 673.45L604.03 673.46L603.771 671.859L603.64 670.39L603.32 668.79L602.94 667.06L602.62 665.52L602.04 663.79L601.14 661.81L600.05 660.08L599.09 658.74L598.32 657.779L597.55 657.01L596.46 656.109L595.63 655.47L595.05 654.89L593.96 654.06L592.94 653.359L591.85 652.72L590.38 652.14L588.78 651.76L587.05 651.569L586.03 651.51L582.19 651.38H581.1L579.88 651.51ZM709.63 651.06L708.22 651.51L707.33 651.89L705.66 652.47L704.38 653.3L703.36 654.069L702.53 654.77L701.7 655.6L700.8 656.56L700.48 657.01L700.03 657.649L699.521 658.479L698.69 660.08L698.43 661.109L698.37 663.47L698.5 665.27L698.88 666.8L699.26 667.83L700.54 670.069L702.34 672.18L703.23 673.2L704.51 674.55L706.5 676.21L706.94 676.529L707.26 676.91L707.78 677.359L708.22 677.87L708.67 678.45L708.99 678.77L709.44 679.02L709.76 679.41L710.021 679.729L710.271 680.5L710.59 681.2L710.85 681.71L710.91 682.99L710.21 685.1L709.31 686.58L708.29 687.22L706.62 687.859L705.28 687.79L704.13 687.6L702.91 686.899L701.31 685.81L700.03 684.979L699.65 685.17L699.71 685.42H699.58L699.26 685.17L698.75 685.229L698.56 685.62L698.43 685.74L698.37 686.13L698.05 686.319L697.79 686.83L697.6 687.41L697.28 687.54L697.021 688.18L696.51 688.62L696.38 688.819L696.32 689.069L696.06 689.33L696 689.71L695.81 689.779L695.36 690.22L695.23 690.42V690.74L694.98 691.06L694.59 691.38L694.4 691.63V691.95L694.53 692.27L694.46 692.529L694.98 693.1L695.62 693.62L696.06 694.06L696.64 694.38L697.22 694.83L698.05 695.34L698.56 695.729L699.39 696.18L700.74 696.819L701.57 697.14L701.82 697.26H702.4L703.3 697.71L704.38 697.97L706.24 698.1L708.54 697.899L709.57 697.71L710.85 697.33L712.45 696.75L713.79 696.05L715.07 695.22L716.86 693.68L717.31 693.1L718.021 692.529L719.17 691.25L720.51 688.939L721.15 687.6L721.92 685.17L722.05 683.569L721.92 682.029L721.47 679.729L720.64 677.359L720.13 676.27L718.53 674.1L716.73 671.92L714.94 670.13L713.92 669.04L712.83 668.08L711.1 666.42L709.76 665.14L708.99 663.859L709.25 662.45L709.82 661.81L710.34 661.43L710.78 661.04L712.32 660.529H714.81L715.97 660.72L717.5 661.17L717.95 661.49L718.14 661.229L718.33 660.399V659.7L718.53 659.439V658.93L718.46 658.42L718.78 658.29L718.98 658.229V658.1L718.78 657.91L718.4 657.71L718.21 657.52V657.399L718.53 657.27V656.95L718.59 656.63L718.4 656.439L718.59 656.24L718.21 655.859L718.271 655.6L718.53 655.54V655.35L718.33 654.96V654.45L718.271 654.13L718.14 653.939H718.4L718.14 653.04L718.33 652.72L718.4 652.21L718.08 652.08L717.89 651.83L718.021 651.7L718.21 651.64L718.14 651.38L717.76 651.189L717.12 651.06L715.33 650.87L712.32 650.74L709.63 651.06ZM327.62 651.64L327.49 651.76L327.36 651.569L326.79 651.83H326.27L325.95 652.02L325.63 651.89L325.38 651.76L325.06 651.96L324.8 652.149L324.42 652.08H323.65L323.14 652.02L322.43 652.149L320.96 652.27L320.45 652.34L320 652.27L319.55 652.979L319.43 654.13L319.36 655.029L319.3 657.069L318.98 659.63L318.85 662.13L318.79 663.67L318.72 665.27L318.59 667.83V670.069L318.47 671.54V672.88L318.4 674.739L318.47 675.51V676.529L318.4 677.939V680.109L318.27 681.71V685.04L318.21 687.34V688.56L318.15 689.899L318.21 691.18L318.15 693.229L318.08 694.64L317.83 695.02L317.76 695.54L317.83 697.069L318.59 697.899L318.85 697.84L319.11 698.029H319.55L320.07 697.899L320.77 697.71L321.35 697.779L321.6 697.71L321.92 697.779L321.99 697.58L322.31 697.33L322.82 697.46L323.14 697.52H323.39L323.65 697.33L323.84 697.14L324.23 697.39L325.12 696.88L325.63 697.14L326.27 696.88L326.53 696.37L326.66 696.3H326.91L327.04 695.979L327.11 694.51L327.3 693.1L327.36 692.27V690.29L327.43 689.01L327.49 686.77L327.62 684.979L327.68 683.7V683.12L327.75 682.479L327.68 681.649V680.88L327.75 679.22L327.81 677.87L327.87 675.569L328 673.84V673.01L328.07 672.88H328.39L328.58 673.33L328.71 673.91L328.77 674.16L328.96 674.029L329.03 673.52V673.33H329.09L329.41 673.97L329.79 674.8L329.92 675.38L330.18 675.89L330.56 676.72L331.07 677.75L331.97 679.67L332.29 680.5L332.61 681.01L333.06 682.1L332.93 682.93L333.25 683.31L333.95 683.38L334.91 683.25H335.94L336.96 683.189L337.73 682.859L337.92 682.67L338.5 682.55L339.39 682.479L339.84 682.609V682.67L339.65 682.8L339.84 682.93L340.16 682.8L340.74 682.479L340.93 682.29L340.86 682.1L341.06 681.97L341.12 681.649L341.38 681.39L341.5 680.939L342.02 679.859L342.46 678.899L342.85 678.13L343.62 676.529L344.19 675.25L344.7 674.029L345.28 673.069L345.41 673.59L345.47 674.87V677.1L345.54 678.51L345.6 681.39V682.859L345.66 685.55L345.73 686.899V695.979L345.86 696.62L346.05 697.26H346.5L347.01 697.52L348.67 697.39L349.25 697.46L349.57 697.52L349.7 697.069L349.76 696.75L349.95 696.819L350.27 697.069L350.46 697.33H350.72L350.78 697.01H350.98L351.1 697.2L351.17 697.39L351.36 697.2H351.94L352.19 697.33L352.51 697.01L353.22 697.069L353.79 697.2L354.3 696.819V696.5L354.24 696.3L354.3 696.18H354.37L354.56 696.43L354.82 696.3L354.88 695.79L354.94 694.45V692.66L355.01 690.93L355.07 688.5L355.14 687.02V684.34L355.2 683.12V679.54L355.14 677.359L355.2 674.93L355.14 672.56L355.26 670.13V668.66L355.39 665.91L355.58 663.279L355.65 661.359V659.51L355.58 658.229L355.52 656.88L355.46 655.859L355.39 654.58L355.26 653.43V652.149L355.2 651.7H355.07V651.89L355.01 652.08H354.88L354.62 651.76L354.24 651.64L353.98 651.7L353.54 651.76L352.9 651.83L352.45 652.02L352.26 652.149L352.06 652.08L351.62 651.89L351.3 652.27L351.04 652.21L350.46 652.08L349.5 652.21H348.61L347.84 652.27L347.39 652.34L347.07 652.27L346.5 652.399L345.86 652.47L345.66 652.6L345.6 653.109L345.28 654L344.38 656.239L343.68 657.71L343.36 658.229L343.23 658.67L342.91 659.25L342.59 660.34L342.27 661.109L342.02 661.489L341.63 662.64L341.44 663.67L341.19 664.05L340.86 664.95L340.67 665.649L340.42 665.97L340.29 666.29L340.16 666.87L339.71 667.63L339.52 668.27L339.2 668.85L338.82 669.68L338.62 670.51L338.31 671.029L338.11 671.41H337.79L338.05 670.899L338.37 670L338.31 669.55L338.11 669.939L337.98 670.45L337.79 670.83L337.54 670.77L337.41 670.319L337.22 669.87L336.7 668.34L336.32 667.63L336.06 667.06L335.68 665.97L335.17 665.01L334.85 664.43L334.72 663.989L334.15 662.58L333.44 661.04L333.19 660.72V660.34L332.8 659.31L332.29 658.16L331.9 657.399L331.59 656.63L331.01 655.09L330.43 653.939L329.67 652.47V652.02L329.54 651.83L328.9 651.7H328.13L327.87 651.51L327.62 651.64ZM646.4 651.569L645.31 651.64L644.16 651.76L643.46 651.7L643.07 651.89L642.24 651.96L641.6 652.02H641.34L641.09 652.08H639.94L639.62 652.149H638.91L638.021 652.21L637.44 652.27L637.12 652.21L636.86 652.47L636.42 652.6V654.319L636.48 655.35V657.59L636.42 658.67L636.29 659.83L636.16 662.189V663.41L636.29 665.649L636.35 668.02L636.48 670.26V672.24L636.42 673.46V675.569L636.35 677.3V681.14L636.23 683.38V685.42L636.16 686.83V688.109L636.03 688.43L636.1 689.26L636.03 691.06V692.08L635.97 693.81L635.84 695.09L635.78 696.05L635.59 696.819L635.71 697.33L635.97 697.39L636.29 697.58L636.86 697.649L637.25 697.71L638.271 697.52H638.91L639.3 697.71L640 697.52L641.021 697.58L641.73 697.52L642.24 697.58L642.3 697.84H642.43L642.69 697.58L643.84 697.52H646.53L648.64 697.46H652.16L652.99 697.39L653.5 697.26L654.271 697.14H658.3L659.65 697.01L660.86 697.069L661.25 696.819L661.76 696.62L662.14 696.43L662.21 696.24L662.14 695.859L662.34 695.279L662.91 694.899L663.42 694.7L663.55 694.51L663.3 694.319L662.85 694L663.1 693.55L663.23 692.72L663.49 692.08L663.36 691.63L663.04 691.38V691.18L663.23 691.12L663.49 690.99L663.36 690.54L663.1 690.29L663.36 689.97L663.42 689.649L663.04 689.33L662.98 688.819L662.78 688.3L662.53 687.92L661.76 687.79L660.73 687.859L659.71 687.79L658.88 687.92H654.4L652.86 687.979L651.26 687.79L650.5 687.66H648.64L648 687.54H646.59L645.31 687.47L645.25 686.51L645.31 685.3L645.38 683.63L645.44 681.2L645.57 679.859L645.63 679.47L646.14 679.149L647.74 678.96L650.56 678.83L652.67 678.77H654.85L657.66 678.899H658.75L659.2 678.39L659.97 678.189V678L659.771 677.62L660.22 676.85L660.67 676.529L660.99 676.47L661.18 676.21L660.99 676.02L660.73 675.83L660.8 675.439L660.86 674.93L660.99 674.42L661.25 674.029L660.99 673.59L660.93 672.95L661.06 672.56L660.73 672.05L660.99 671.54L660.54 671.029L660.48 670.39L660.35 669.87L659.71 669.229H659.2L658.88 669.359L658.37 669.229L657.92 669.109L657.28 669.04H656.64L656.13 669.109L655.55 668.91H654.85L652.93 668.79H649.021L646.72 668.85L646.46 668.72L646.4 667.95L646.46 666.16V661.939L646.53 661.49H648.96L656.51 661.359H658.37L658.69 661.17L659.65 661.109L660.67 661.17L661.06 661.229L661.31 661.17L661.69 661.359L662.14 661.43L662.91 660.85L663.68 660.02L664.26 659.189L664.771 658.93L665.15 658.67L664.96 658.35L664.57 657.069V656.75L664.7 656.31L664.9 655.54L664.51 653.88L664.13 653.43L664 652.79L663.74 652.34L663.49 651.96L663.1 652.02L662.34 651.96L661.18 651.89H660.16L659.58 651.83L659.33 651.89H656.26L655.04 651.96L654.14 651.76L653.38 651.7L652.48 651.64L647.55 651.38H646.91L646.4 651.569ZM584.34 661.55L585.94 661.74L586.521 661.93H587.1L587.93 662.31L591.19 665L592.79 667.05L593.49 668.84L593.68 669.479L593.87 670.31L594.19 672.229L594.25 673.64L594.38 674.34L594.44 675.939L594.25 678.56L594.3 678.58L593.53 681.33L592.7 683.76L592.12 684.779L591.61 685.55L590.97 686.25L589.88 687.08L588.22 687.779L586.62 688.42L584.57 688.68L583.35 688.81L580.98 689L579.96 688.939L579.771 688.81L579.71 688.62V688.3L579.45 687.21V685.93L579.58 685.35L579.71 685.09L579.521 684.45L579.58 683.75V681.569L579.64 681.189L579.83 680.87L579.89 680.359L579.95 678.819V676.96L579.89 676.319L580.021 675.939L580.08 674.279L580.14 671.399L580.2 669.29V665.77L580.26 663.34L580.32 661.68L580.38 661.49L580.57 661.359H581.91L584.34 661.55ZM70 372C64.48 372 60 376.48 60 382V632.42C60.0001 637.94 64.4801 642.42 70 642.42H134.89C140.41 642.42 144.89 637.94 144.89 632.42V422C144.89 394.39 122.5 372 94.8896 372H70ZM177.75 372C172.23 372 167.75 376.48 167.75 382V592.42C167.75 620.03 190.14 642.42 217.75 642.42H400.05C405.57 642.42 410.05 637.94 410.05 632.42V422C410.05 394.39 387.66 372 360.05 372H297.29C291.77 372 287.29 376.48 287.29 382V632.42C287.29 636.45 289.68 639.92 293.12 641.5C270.07 637.05 252.66 616.77 252.66 592.42V372H177.75ZM442.91 372C437.39 372 432.91 376.48 432.91 382V592.42C432.91 620.03 455.3 642.42 482.91 642.42H545.66C551.18 642.42 555.66 637.94 555.66 632.42V384.38C566.12 393.54 572.74 406.99 572.74 422V642.42H647.65C653.17 642.42 657.65 637.94 657.65 632.42V422C657.65 394.39 635.26 372 607.65 372H442.91ZM624.73 372C652.34 372 674.73 394.39 674.73 422V642.42H749.64C755.16 642.42 759.64 637.94 759.64 632.42V422C759.64 394.39 737.25 372 709.64 372H624.73ZM792.5 372C786.98 372 782.5 376.48 782.5 382V632.42C782.5 637.94 786.98 642.42 792.5 642.42H895.25C900.77 642.42 905.25 637.94 905.25 632.42V422C905.25 394.39 882.86 372 855.25 372H792.5ZM348.67 478.04C358.71 478.04 367.57 483.12 372.81 490.84C370.79 490.03 368.59 489.58 366.29 489.58C356.56 489.58 348.67 497.47 348.67 507.2C348.67 516.93 356.56 524.819 366.29 524.819C368.6 524.819 370.79 524.359 372.81 523.56C367.57 531.29 358.71 536.359 348.67 536.359C332.57 536.359 319.51 523.31 319.51 507.2C319.51 491.09 332.56 478.04 348.67 478.04ZM492.34 490.87L462.87 507.21V507.35L492.34 523.55V528.5L458.06 509.12V505.3L492.34 485.92V490.87Z" fill="var(--fill-0, #A9CAF8)"/>
</svg>
