<svg preserveAspectRatio="none" width="100%" height="100%" overflow="visible" style="display: block;" viewBox="0 0 224.608 22.0919" fill="none" xmlns="http://www.w3.org/2000/svg">
<path id="Arrow 2" d="M1.5 9.54594C0.671573 9.54594 0 10.2175 0 11.0459C0 11.8744 0.671573 12.5459 1.5 12.5459V11.0459V9.54594ZM224.169 12.1066C224.754 11.5208 224.754 10.5711 224.169 9.98528L214.623 0.43934C214.037 -0.146447 213.087 -0.146447 212.501 0.43934C211.916 1.02513 211.916 1.97487 212.501 2.56066L220.987 11.0459L212.501 19.5312C211.916 20.117 211.916 21.0668 212.501 21.6525C213.087 22.2383 214.037 22.2383 214.623 21.6525L224.169 12.1066ZM1.5 11.0459V12.5459H223.108V11.0459V9.54594H1.5V11.0459Z" fill="var(--stroke-0, #A9CAF8)"/>
</svg>
