<svg preserveAspectRatio="none" width="100%" height="100%" overflow="visible" style="display: block;" viewBox="0 0 76.8693 22.0919" fill="none" xmlns="http://www.w3.org/2000/svg">
<path id="Arrow 2" d="M1.5 9.54594C0.671573 9.54594 0 10.2175 0 11.0459C0 11.8744 0.671573 12.5459 1.5 12.5459V11.0459V9.54594ZM76.43 12.1066C77.0158 11.5208 77.0158 10.5711 76.43 9.98528L66.8841 0.43934C66.2983 -0.146447 65.3485 -0.146447 64.7627 0.43934C64.177 1.02513 64.177 1.97487 64.7627 2.56066L73.248 11.0459L64.7627 19.5312C64.177 20.117 64.177 21.0668 64.7627 21.6525C65.3485 22.2383 66.2983 22.2383 66.8841 21.6525L76.43 12.1066ZM1.5 11.0459V12.5459H75.3693V11.0459V9.54594H1.5V11.0459Z" fill="var(--stroke-0, #A9CAF8)"/>
</svg>
