<svg xmlns="http://www.w3.org/2000/svg" viewBox="0 0 151 22.0919" fill="none" preserveAspectRatio="xMinYMid meet">
  <path d="M1.5 9.54594C0.671573 9.54594 0 10.2175 0 11.0459C0 11.8744 0.671573 12.5459 1.5 12.5459V11.0459V9.54594ZM149.561 12.1066C150.146 11.5208 150.146 10.5711 149.561 9.98528L140.015 0.43934C139.429 -0.146447 138.479 -0.146447 137.893 0.43934C137.308 1.02513 137.308 1.97487 137.893 2.56066L146.379 11.0459L137.893 19.5312C137.308 20.117 137.308 21.0668 137.893 21.6525C138.479 22.2383 139.429 22.2383 140.015 21.6525L149.561 12.1066ZM1.5 11.0459V12.5459H148.5V11.0459V9.54594H1.5V11.0459Z" fill="#F4F2EC"/>
</svg>
