<svg preserveAspectRatio="none" width="100%" height="100%" overflow="visible" style="display: block;" viewBox="0 0 52 22.0919" fill="none" xmlns="http://www.w3.org/2000/svg">
<path id="Arrow 1" d="M1.5 9.54594C0.671573 9.54594 0 10.2175 0 11.0459C0 11.8744 0.671573 12.5459 1.5 12.5459V11.0459V9.54594ZM51.5607 12.1066C52.1464 11.5208 52.1464 10.5711 51.5607 9.98528L42.0147 0.43934C41.4289 -0.146447 40.4792 -0.146447 39.8934 0.43934C39.3076 1.02513 39.3076 1.97487 39.8934 2.56066L48.3787 11.0459L39.8934 19.5312C39.3076 20.117 39.3076 21.0668 39.8934 21.6525C40.4792 22.2383 41.4289 22.2383 42.0147 21.6525L51.5607 12.1066ZM1.5 11.0459V12.5459H50.5V11.0459V9.54594H1.5V11.0459Z" fill="var(--stroke-0, #F4F2EC)"/>
</svg>
