<svg preserveAspectRatio="none" width="100%" height="100%" overflow="visible" style="display: block;" viewBox="0 0 108.549 20.1551" fill="none" xmlns="http://www.w3.org/2000/svg">
<g id="Group">
<path id="Vector" d="M1.48118 19.2886V19.1068H1.2454L0.961254 19.028H0.441331L0.181369 18.9492L0.126958 18.6341L0.181369 18.2948L0.284144 18.0887L0.259962 17.9615L0.205551 17.9069L0.259962 17.6221L0.181369 17.307V16.8101L0.235779 16.7071L0.181369 16.5253L0.205551 16.2647L0.151141 16.0041L0.175323 15.9011L0.09673 15.586L0.0725475 14.9618L0.048365 14.5195V13.9195L0.0241825 13.1136V12.2834L0 11.8168V11.0653L0.0241825 10.4654V9.34433L0.048365 7.10824L0.0725475 5.90838V5.20544L0.151141 3.9571L0.253916 2.91481V2.0846L0.278099 1.76949V1.27258L0.302281 1.09079L0.380874 0.830211L0.798022 0.751432L1.05798 0.775672L1.23935 0.751432L1.4449 0.727192L1.72905 0.648415H1.96483L2.01924 0.702952L2.12201 0.678714L2.22479 0.702952L2.32757 0.678714L2.50893 0.624175H2.74471L3.16186 0.545396L3.36741 0.569636L3.5246 0.515097L3.68179 0.539337H3.99616L4.4919 0.484798H4.93323L6.493 0.539337L6.91015 0.563575L7.61144 0.642354L8.25832 0.799912L8.85684 1.03625L9.29817 1.29682L9.71532 1.58163L10.1566 1.92099L10.3924 2.15732L10.731 2.4179L11.1723 2.78149L11.4867 3.0966L11.8011 3.48443L12.188 4.02982L12.6293 4.73277L12.992 5.53873L13.2278 6.24168L13.3548 6.86584L13.512 7.56879L13.6389 8.21719L13.6933 8.81712L13.7961 9.46552L13.8505 10.2472L13.8747 11.132L13.7961 11.6531L13.7175 12.2228L13.5906 12.8469L13.4878 13.2893L13.2822 13.9922L12.9195 14.7982L12.6837 15.2951L12.5568 15.5799L12.2968 15.9678L12.0912 16.4647L11.7043 16.9313L11.4202 17.2706L11.263 17.5312L10.9003 17.816L10.7431 18.0524L10.4589 18.2584L10.072 18.519L9.91482 18.5735L9.65486 18.7008L9.44931 18.828L9.26794 18.8523L8.9838 19.0341L8.54247 19.1371L7.94395 19.2643L7.34543 19.3431L6.82551 19.3977L6.56555 19.3734V19.3189L6.66832 19.2159L6.7711 19.0341L6.66832 18.9553L6.48695 18.9795L6.32977 19.0038H6.20281L6.10004 19.1613L6.15445 19.3189V19.3977L5.99726 19.4219L5.45315 19.4461L5.3262 19.4219L5.27178 19.3674L5.35038 19.3431L5.55593 19.3189L5.68289 19.2946L5.47734 19.2704L5.24156 19.2462L5.26574 19.1431L5.28992 19.1189H5.3927L5.65266 19.1734L5.83403 19.0947L5.54988 19.0704L5.21133 19.0462L5.00578 19.1007L4.30448 19.0462H4.12312L3.91756 19.1007L3.7362 19.0765H3.53064L3.2465 18.9977L3.08931 19.0765L2.80517 19.0522L2.44243 19.0765L2.23688 19.0522L2.10992 18.9735L2.08574 18.8947L1.88019 19.0522L1.62023 19.131L1.59604 19.3128V19.4704L1.54163 19.4946L1.51745 19.2886H1.48118ZM5.39874 15.7193L5.89448 15.6648L6.72273 15.5618L7.36962 15.3012L8.04673 15.0164L8.48806 14.677L8.74802 14.3922L8.95357 14.0771L9.18935 13.659L9.5279 12.6712L9.84228 11.5501L9.92087 10.4836L9.89669 9.83518L9.84228 9.55036L9.81809 8.98074L9.69114 8.19901L9.61254 7.85966L9.53395 7.59909L9.24981 6.8719L8.60292 6.0417L7.27893 4.95092L6.94038 4.79336H6.7046L6.46882 4.71459L5.82194 4.63581L4.8365 4.55703H4.29239L4.2138 4.61157L4.18962 4.69035L4.16544 5.36905L4.14125 6.35681V7.78694L4.11707 8.64744L4.09289 9.817L4.06871 10.4957L4.01429 10.6533L4.03848 10.9138V11.6713L4.01429 12.2955L3.99011 12.5015L3.91152 12.6288L3.88734 12.7863V13.6711L3.86315 13.9559L3.94175 14.2165L3.88734 14.3195L3.83293 14.5558V15.077L3.9357 15.5193V15.6466L3.95988 15.7254L4.03848 15.7799L4.45563 15.8041L5.41688 15.7254L5.39874 15.7193Z" fill="var(--fill-0, #F4F2EC)"/>
<path id="Vector_2" d="M23.9226 19.2886L23.7413 19.2643L23.4934 19.2886L23.1306 19.2643L22.8828 19.3431L22.7498 19.2643H22.5261L22.1633 19.3431L22.0303 19.3189L21.8308 19.2946L21.716 19.2159L21.6253 19.1916L21.583 18.9856L21.6495 18.6705L21.6737 18.2826L21.716 17.7615L21.7402 17.0585V16.6404L21.7643 15.9132L21.7402 15.5739L21.7825 15.4466V14.9255L21.8067 14.3558V13.5256L21.849 12.6167V11.0532L21.8732 10.3503V9.48976L21.8973 8.99285V8.18689L21.855 7.27791L21.8308 6.31439L21.7885 5.40541V4.9085L21.8308 3.94498L21.8732 3.47837L21.8973 3.036V2.12702L21.8732 1.70889V1.00594L22.0303 0.951404L22.121 0.848385L22.2359 0.872625L22.4354 0.848385L22.7498 0.824145H22.9976L23.1125 0.799907H23.5176L23.6083 0.775667H23.6989L23.9226 0.751427L24.2128 0.727187L24.3458 0.64841L24.5937 0.672648L24.9987 0.618109L25.3796 0.593871L25.561 0.515092H25.7847L27.5137 0.618109L27.8281 0.642349L28.1002 0.666589L28.4145 0.745368L28.8438 0.721128H29.9259L30.0166 0.696888L30.2161 0.721128H30.5728L30.9779 0.745368L31.2499 0.769606L31.3829 0.745368L31.4736 0.902924L31.5643 1.08472L31.6066 1.34529L31.7396 1.52709L31.8726 2.2058L31.8061 2.52091L31.7638 2.70271V2.82996L31.8968 3.35111L31.9633 3.47837L31.8303 3.58139L31.6489 3.6844L31.4494 4.02376L31.1774 4.36311L30.9053 4.59944L30.7481 4.57521L30.6151 4.49643L30.5244 4.52067L30.3914 4.49643L30.0287 4.47219L29.6902 4.49643L29.5753 4.57521H28.9224L26.2683 4.62975H25.4159L25.3917 4.81154V6.52648L25.3675 7.25367L25.3917 7.56878L25.4824 7.62332L26.2925 7.59908H27.6649L28.342 7.65362H28.5898L28.7894 7.7324L28.9707 7.70816H29.1944L29.4181 7.7324L29.5753 7.78694L29.7567 7.84148L29.8715 7.78694H30.0529L30.2766 8.04751L30.3189 8.25355L30.3431 8.51412L30.5003 8.72016L30.4096 8.92619L30.5244 9.13223L30.4821 9.28978L30.5063 9.55036L30.597 9.73216L30.5063 9.88971L30.464 10.0957L30.4398 10.3018L30.4156 10.4593L30.5063 10.5381L30.5728 10.6169L30.5063 10.7199L30.3914 10.7442L30.2343 10.8714L30.0771 11.1865L30.1436 11.3441V11.4229L29.8715 11.5016L29.7143 11.7077H29.3335L28.342 11.6531H27.5802L26.8366 11.6774L25.8451 11.7319L25.2829 11.8107L25.1015 11.9379L25.0773 12.0955L25.035 12.6409L25.0108 13.6287L24.9867 14.3074L24.9625 14.8043L24.9867 15.1921L25.434 15.2163H25.9298L26.1535 15.2709H26.8064L27.0784 15.3254L27.6407 15.4042L28.1787 15.38H29.7506L30.0408 15.3254L30.3975 15.3497L30.7602 15.3254L31.0323 15.38L31.123 15.5375L31.1895 15.7435L31.2136 15.9496L31.3467 16.0768L31.3225 16.2041L31.2318 16.3314L31.3225 16.4344L31.3648 16.6162L31.2741 16.6707L31.2076 16.6949V16.7737L31.3225 16.8767L31.3648 17.0585L31.2741 17.3191L31.2318 17.6585L31.1411 17.8403L31.2983 17.9675L31.389 18.0463L31.3467 18.1251L31.1653 18.2039L30.9658 18.3614L30.8993 18.5977L30.9235 18.7553L30.8993 18.8341L30.7663 18.9129L30.5849 18.9916L30.4519 19.0947L30.0227 19.0704L29.5511 19.125H28.1364L27.8644 19.1795L27.683 19.234L27.3928 19.2583H26.1535L25.4098 19.2825H24.4667L24.0617 19.3068L23.971 19.4098H23.9287L23.9045 19.3068L23.9226 19.2886Z" fill="var(--fill-0, #F4F2EC)"/>
<path id="Vector_3" d="M43.8611 19.4401L43.4198 19.337L43.057 19.1553H42.8213L42.7185 19.1007L42.3799 18.9735L41.8358 18.7129L41.4973 18.5311L41.2917 18.3735L40.9532 18.1675L40.7174 17.9857L40.4816 17.8584L40.3002 17.6766L40.0403 17.4706L39.8347 17.2343L39.8589 17.1313L39.8045 17.004V16.8767L39.8831 16.7737L40.0403 16.6465L40.143 16.5192V16.392L40.1975 16.3132L40.3788 16.1314L40.4574 16.1071L40.4816 15.9496L40.5844 15.8466L40.6086 15.7435L40.663 15.6648L40.8685 15.483L40.9713 15.2224L41.0983 15.1679L41.1768 14.9315L41.2796 14.7255L41.4066 14.6467L41.4308 14.4892L41.4852 14.4346L41.5638 14.2771L41.7693 14.2528L41.8963 14.3558H41.9507L41.9265 14.2528L42.0837 14.174L42.6036 14.5134L43.2505 14.9558L43.7462 15.2406L44.2117 15.3194L44.7559 15.3436L45.433 15.083L45.8501 14.8224L46.2129 14.2225L46.497 13.362L46.4728 12.8409L46.37 12.6348L46.2431 12.35L46.1403 12.0349L46.0375 11.9077L45.9106 11.7501L45.7292 11.6471L45.6022 11.5198L45.4209 11.2835L45.2395 11.0774L45.034 10.8956L44.907 10.7381L44.7256 10.6108L43.9216 9.93213L43.4016 9.38674L43.0389 8.96861L42.3134 8.10811L41.7935 7.19913L41.6363 6.781L41.4791 6.15683L41.4247 5.42965L41.4489 4.46613L41.5517 4.048L41.8902 3.39959L42.0958 3.06024L42.2771 2.79966L42.4041 2.61787L42.7668 2.23003L43.1054 1.89068L43.444 1.60587L43.8611 1.29075L44.381 0.951403L45.0581 0.715066L45.4209 0.557511L45.9892 0.375715L47.0774 0.248456L48.2986 0.302995L49.0241 0.381774L49.284 0.436313L49.4412 0.515092L49.4654 0.618109L49.3868 0.642349L49.3324 0.696888L49.411 0.799907L49.5379 0.854443L49.5138 1.06048L49.4352 1.18774L49.5379 1.55133H49.4352L49.4896 1.63011L49.5138 1.75736V1.9634L49.5924 2.12096V2.19974L49.4896 2.22398L49.4654 2.32699L49.6226 2.48455L49.544 2.56333L49.6226 2.64211L49.5984 2.76936V2.89662L49.4714 2.95116V3.0057L49.55 3.08448L49.7072 3.16325L49.7858 3.24203V3.29657L49.7072 3.32081L49.5803 3.37535L49.6044 3.58138V3.78742L49.5259 3.89044V4.17525L49.4473 4.51461L49.3687 4.61762L49.1873 4.49037L48.5646 4.30857L48.0991 4.22979H47.0895L46.4668 4.43583L46.2854 4.59338L46.0798 4.75094L45.8441 5.01151L45.7413 5.58114L46.0557 6.10229L46.5998 6.62344L47.3011 7.30215L47.7424 7.68998L48.1595 8.13235L48.885 8.85953L49.6105 9.74427L50.2574 10.629L50.4629 11.0714L50.8015 12.0349L50.9829 12.9742L51.0373 13.5984L50.9829 14.2468L50.6685 15.2345L50.4085 15.7799L49.8644 16.7192L49.3989 17.2403L49.1147 17.4767L48.9334 17.713L48.2079 18.3372L47.688 18.6765L47.1439 18.9613L46.497 19.1977L45.9771 19.3552L45.5599 19.434L44.6228 19.5128L43.8732 19.4582L43.8611 19.4401Z" fill="var(--fill-0, #F4F2EC)"/>
<path id="Vector_4" d="M60.3837 19.5734L60.3293 19.234L60.0452 19.1795L59.9182 19.2037L59.7913 19.0219L59.6643 18.7068L59.6099 18.3675L59.4829 18.1857L59.4588 17.9251V17.6888L59.5373 17.5615V17.4342L59.6401 17.2282V16.8404L59.5615 16.6586L59.5857 16.5556V15.9072L59.6099 15.592V15.489L59.5857 15.1739V14.7861L59.5615 14.5013L59.6401 14.2407L59.5857 13.7195V11.744L59.5615 11.4047L59.5857 11.0653V10.4169L59.5071 10.2109L59.5313 9.97455L59.4769 9.73821L59.5011 9.08981L59.5253 8.5929L59.628 7.24155L59.6824 6.79918V6.19925L59.6583 5.4963V4.8176L59.6341 3.9571V2.96934L59.6583 1.721L59.6824 0.939281L59.8094 0.733246L59.9666 0.678707L60.1721 0.733246L60.4079 0.709006H61.7319L61.8347 0.733246L61.9616 0.678707L62.0886 0.702945L62.27 0.727185L62.4513 0.648408L62.5783 0.727185L62.6811 0.672646L62.8866 0.618107L63.1224 0.721126H63.3038L63.461 0.666587L63.6423 0.721126L63.6665 1.26651L63.6907 1.76342V2.41183L63.7149 2.69664L63.6907 3.08447L63.7149 3.44807V3.78742L63.7391 4.17525L63.7149 4.5146L63.6605 4.6964L63.6846 4.77518H63.7632L63.7874 4.75094V4.77518L63.7632 4.93274L63.6363 4.98728L63.5819 5.01151L63.6363 5.13877L63.7149 5.32057L63.7391 5.47812V6.28409L63.6846 6.54466L63.6302 6.67192L63.5516 6.69616L63.4972 6.82342V7.08399L63.5214 7.21125L63.6 7.23549L63.6544 7.29003V7.44758L63.6302 7.62938H63.5516L63.4972 7.7324V7.81117L63.5214 7.99297L63.5456 8.15053L63.6242 8.20507V8.30808L63.5456 8.4111V8.51412L63.5698 8.64138L63.5456 8.90195V9.21706L63.6484 9.29584L63.594 9.39886V9.84123L63.6967 10.3381L63.7511 10.8835L63.7753 11.6653L63.7995 12.2894V13.0711L63.7753 13.9013V14.4467L63.7209 14.8891V15.5375L63.6665 16.0344L63.6423 16.7858L63.5879 17.4645L63.5637 17.7251L63.461 18.0887L63.4368 18.3493L63.3098 18.5068L63.1284 18.6341L62.9713 18.6099L62.7899 18.7129L62.7355 18.8704L62.6327 18.8947L62.5057 18.8401L62.3788 18.9189H62.3244L62.2458 18.8947L62.1188 18.9492L62.0161 18.8704L61.9375 18.8462L61.8589 19.0038L61.8045 19.2401V19.1128L61.7259 18.8523H61.6231L61.5445 18.9553L61.3389 19.1613L61.3148 19.2401L61.2906 19.2643L61.2362 19.1613L61.1092 19.0825L61.0064 19.1856L60.9823 19.5007L60.9278 19.7067H60.9037L60.8492 19.5794V19.3734L60.7948 19.2946L60.6921 19.3492L60.5651 19.4037L60.5107 19.5855L60.4563 19.9249L60.4019 20.1309L60.3475 20.1551V19.5552L60.3837 19.5734Z" fill="var(--fill-0, #F4F2EC)"/>
<path id="Vector_5" d="M78.853 19.9612L78.1517 19.834H77.8918L77.529 19.6764L77.2933 19.5734L77.0575 19.4946L76.6947 19.3128L76.4106 19.234L76.2836 19.0765L76.1023 19.0522L76.0237 18.9735L75.7637 18.7674L75.2982 18.3251L74.9838 17.9857L74.8025 17.9069L74.6997 17.7494L74.4155 17.3858L74.21 16.9676L74.1072 16.7313L74.0044 16.5495L73.7445 16.2344L73.5631 15.7132L73.3817 15.3254L73.3031 15.0891L73.3273 14.9315L73.2729 14.8043L73.1943 14.7012L73.1399 14.4649L73.0613 14.2589L73.0069 13.8407L72.8497 13.2408L72.7953 12.6954L72.7167 12.4349L72.6925 11.8895L72.487 10.9805L72.36 10.3321L72.4144 10.017V9.07769L72.493 8.73833L72.4689 8.27172L72.5716 7.95661L72.5958 7.79906L72.5716 7.51424L72.5958 7.25367L72.5414 7.15065L72.6442 6.96885L72.6986 6.78706L72.62 6.70828L72.7228 6.50224V6.11441L72.8255 5.85384L72.9041 5.6478L73.0069 5.28421L73.0613 4.99939L73.2185 4.58126L73.3757 4.01164L73.5571 3.8056L73.7626 3.44201L74.077 2.87238L74.2039 2.58757L74.3611 2.48455L74.9294 1.91492L75.3163 1.59981L75.7335 1.23621L76.0962 0.99988L77.0031 0.557509L77.6016 0.399951L77.7044 0.424192L77.9885 0.345415L78.3512 0.266636L78.587 0.163617L78.7684 0.187857L78.9256 0.133318L79.1311 0.157558L79.3367 0.0787791H79.6208L79.778 0.0242401H79.9836L80.1891 9.57377e-08H80.6063L81.4103 0.054539L81.5917 0.0787791L81.7973 0.157558L82.4441 0.284815L82.6255 0.339354L82.9641 0.393893L83.2482 0.496912L83.7923 0.733246L84.288 1.01806L84.9107 1.43619L85.1465 1.61799L85.2009 1.74524L85.1465 1.9028L85.0438 2.13914L84.8624 2.26639L84.7596 2.39365L84.7354 2.59969L84.6085 2.67846L84.5057 2.75724V2.93904L84.4029 3.09659L84.2215 3.19961L84.2457 3.30263L84.2215 3.32687H84.1671L84.0644 3.30263L84.01 3.48443L84.0644 3.64198H83.8588L83.7802 3.76924L83.6533 3.87226L83.6291 4.02982L83.4719 4.08435L83.3449 4.34493L83.2422 4.44795L83.1636 4.55096L83.0366 4.62974L82.8794 4.7873H82.7222L82.6678 4.81154L82.3293 4.5752L81.9665 4.33887L81.628 4.18131L80.9025 4.02376L80.2556 3.99952L80.0984 3.94498L80.1226 3.92074V3.8965L79.9957 3.87226L79.6329 3.9268L79.2158 3.98134L79.0586 4.03587L78.9558 4.16313L78.4601 4.32069L77.916 4.66004L77.529 5.02363L77.1421 5.80536L76.858 6.6901L76.731 7.23549L76.7068 7.7021L76.6524 8.24748L76.598 8.74439L76.5436 9.02921L76.598 9.62914L76.6524 10.0715V10.2533L76.7068 11.0047L76.8338 11.6531L76.9366 12.15L77.0393 12.5682L77.2207 13.1136L77.4263 13.6832L77.6318 14.1256L77.916 14.6952L78.5145 15.1618L78.98 15.3436L79.4455 15.5496L79.9654 15.7072L80.304 15.7314L80.6425 15.7072L81.0295 15.6526L81.2894 15.5496L81.5494 15.3436L81.7852 15.083L81.8093 14.9012L81.7852 14.3316L81.7308 13.4469L81.6522 12.6651V12.144L81.5977 11.9622L81.362 11.9379L79.4939 12.144L78.714 12.247L78.5084 12.2228L78.4843 12.1682L78.5387 12.1137L78.5628 12.0591L78.4601 11.9016L78.4843 11.7986V11.6956L78.4601 11.5138L78.5387 11.2289L78.5145 10.9441V10.7866L78.5387 10.6836L78.5145 10.5018L78.5387 10.2957L78.5628 10.1927L78.5387 10.0109V9.6958L78.4843 9.53824L78.5387 8.96861L78.5931 8.86559L78.5387 8.6838L78.5931 8.44746L78.6172 8.36868L78.98 8.21113L79.7296 8.05357L80.6365 7.99903L81.5736 7.97479H82.2507L82.5106 7.95055L83.1333 7.97479H83.8104L83.9676 8.05357L84.1248 7.95055L84.3304 7.97479L84.5903 7.92025L84.7717 7.94449L84.8745 7.88995L85.0558 7.91419H85.213L85.4488 7.85965L85.6544 7.88389L85.733 8.08993L85.7874 8.71409L85.7632 9.49582V10.3018L85.7088 11.3926L85.6846 12.1743V12.6409L85.739 13.4711L85.7632 13.9922V14.774L85.6604 15.2951L85.6362 15.8405L85.5576 16.2041L85.3763 16.3071L85.2191 16.7495L85.0377 17.1131L84.9833 17.1919L84.8805 17.3979L84.675 17.6827L84.4694 17.9433L84.0523 18.3856L83.4537 18.8826L83.0668 19.1189L82.9399 19.2461L82.6799 19.4037L82.3655 19.5855L82.2386 19.7431H82.033L81.8275 19.7976H81.6461L81.4406 19.9249L81.1262 19.9794L80.9206 19.9249H80.6849L80.3463 19.9491L80.0622 19.8946L79.778 19.9491L79.4636 19.8946L79.2037 19.9733H79.0465L79.0223 20.0521L78.8651 19.9249L78.853 19.9612Z" fill="var(--fill-0, #F4F2EC)"/>
<path id="Vector_6" d="M105.194 19.3128L105.091 18.9735L104.934 18.9492L104.674 19.0522L104.517 18.9977L104.414 19.0765L104.287 19.0219L104.081 18.8401L103.332 17.4585L102.969 16.6525L102.685 16.1556L102.425 15.6102L101.905 14.6467L101.409 13.762L101.228 13.3438L100.865 12.6651L100.448 11.9137L100.164 11.4471L99.5411 10.4593L99.0998 9.57459L98.7128 8.87165L98.4529 8.45352L98.1687 8.01115L98.1445 7.95661H98.0901L98.066 8.11417V9.80487L98.0418 10.2472L98.066 10.8169L98.0115 11.4653V12.8469L97.9874 13.3438V14.3558L97.9632 14.9012L97.8604 15.0285L97.9148 15.186L97.939 15.289L97.9148 15.3921L97.8604 15.5496L97.9148 15.7557L97.8906 15.8829L97.8362 16.089L97.6307 16.1677L97.6065 16.295L97.6851 16.398L97.7395 16.4768L97.8181 16.4525L97.8725 16.4283H97.8967V16.4525L97.8725 16.5798L97.7153 16.6343L97.5339 16.6889L97.4553 16.8707L97.5339 16.9979L97.5581 17.0222L97.6125 17.101L97.6367 17.1555L97.5823 17.3615L97.6065 17.4888L97.6609 17.4645L97.7395 17.5191L97.6851 17.6463L97.6065 17.7736L97.6609 18.0342L97.6851 18.2947V18.3978L97.7879 18.3735L97.8664 18.5796V18.7856L97.7395 18.8401L97.5823 18.9189L97.3465 18.9432L97.0624 18.9977L96.8568 19.0219L96.6996 19.0765L96.4941 19.1007L96.3369 19.1553L96.2341 19.131L96.0286 19.234L95.823 19.3916L95.6417 19.2643L95.5631 19.2401L95.4603 19.4461H95.3817L95.3031 19.3916L95.2245 19.4461L95.019 19.4219H94.7832L94.626 19.3976L94.499 19.4522L94.3721 19.3976L94.2149 19.2946V18.931L94.3418 18.6462L94.5232 18.5674L94.626 18.4887L94.6502 18.4099L94.5716 18.3069L94.3358 18.3311L94.2088 18.0463L94.233 17.6585V17.1918L94.1786 16.8767V16.4344L94.233 15.8344L94.1786 15.2103L94.233 14.6406L94.2088 13.9619V13.5438L94.1847 12.4773L94.2391 11.3562L94.2149 10.3139L94.1605 8.85953L94.1847 7.76875L94.2088 6.80523L94.233 5.92049V5.32057L94.2572 4.93273L94.3116 4.22979L94.366 3.81166L94.3902 3.55108L94.4446 2.90268L94.4688 2.46031L94.5474 1.55133V1.08472L94.5716 1.00594L94.6985 0.9514L94.9585 0.896861L95.2185 0.9514L95.4784 0.92716H95.684L95.8412 0.9514L95.9681 0.896861L96.2825 0.999877L96.3853 0.921098L96.5908 0.896861L96.8266 0.872621L97.0321 0.92716H97.2377L97.3405 0.848381L97.4977 0.872621L97.6004 0.896861L97.7032 0.842322H97.8604L98.0418 0.866559L98.2231 0.842322L98.3501 0.866559L98.5073 0.787783L98.7914 0.993819L99.2086 1.56345L99.7769 2.42395L100.375 3.38747L100.635 3.85408L100.919 4.29645L101.464 5.23573L102.346 6.6901L102.842 7.59908L103.181 8.30202L103.676 9.10798L103.936 9.55035L104.251 10.0473L104.305 10.023V9.73821L104.329 9.53217L104.305 9.40492L104.329 9.14434L104.353 8.85953V8.65349L104.299 8.44746L104.323 8.1081L104.245 7.90207L104.372 7.38092L104.293 7.12035V6.83553L104.347 6.49618L104.323 6.15683L104.347 5.89625L104.372 5.69022L104.347 5.53266L104.372 4.93273L104.426 3.36929L104.45 2.56332L104.426 1.8119L104.505 1.24227L104.529 1.00594L104.789 0.92716H105.877L106.034 0.90292L106.191 0.957458L106.348 0.90292L106.584 0.92716L106.79 0.848381H107.026L107.388 0.793842L107.594 0.818082L107.799 0.793842H108.059L108.265 0.769602L108.422 0.824141L108.549 0.848381V0.90292L108.525 1.32105V2.33305L108.47 3.27233L108.446 4.02375L108.392 4.96303L108.368 5.48418L108.313 6.36892L108.289 6.83553L108.265 7.38092L108.211 8.16264L108.186 8.99285V9.48975L108.162 10.32L108.138 11.1259L108.114 12.1137V12.6348L108.168 13.3863V14.2952L108.144 14.8649L108.12 15.3072V15.9859L108.096 16.3495V16.5859L108.071 17.1555L107.993 17.9615V18.6099L107.914 18.9735L107.757 19.028L107.576 19.0522L107.34 19.028L107.183 19.131L107.104 19.1068L106.977 19.028L106.874 19.0038L106.796 19.1068L106.741 19.1613L106.717 19.1068L106.512 19.0522L106.306 19.2583L106.179 19.234L106.052 19.0765L105.925 19.0522L105.822 19.2098H105.696L105.641 19.0825L105.617 19.0583L105.563 19.034L105.484 19.1613L105.43 19.4219L105.375 19.6582H105.297L105.218 19.2946L105.194 19.3128Z" fill="var(--fill-0, #F4F2EC)"/>
</g>
</svg>
