<svg preserveAspectRatio="none" width="100%" height="100%" overflow="visible" style="display: block;" viewBox="0 0 226 87" fill="none" xmlns="http://www.w3.org/2000/svg">
<g id="logo2" clip-path="url(#clip0_0_119)">
<path id="Vector" d="M2.67377 0H9.32877C16.7057 0 22.6976 5.94581 22.6976 13.2719V69.1254C22.6976 70.5906 21.4997 71.7798 20.0238 71.7798H2.67377C1.19785 71.7798 0 70.5906 0 69.1254V2.65438C0 1.18916 1.19785 0 2.67377 0Z" fill="var(--fill-0, #EEEAE2)"/>
<path id="Vector_2" d="M137.095 13.2719V71.7798H157.124C158.6 71.7798 159.798 70.5906 159.798 69.1254V13.2719C159.798 5.94316 153.811 0 146.429 0H123.726C131.108 0 137.095 5.94316 137.095 13.2719Z" fill="var(--fill-0, #EEEAE2)"/>
<path id="Vector_3" d="M164.364 13.2719V71.7798H184.394C185.869 71.7798 187.067 70.5906 187.067 69.1254V13.2719C187.067 5.94316 181.081 0 173.698 0H150.996C158.378 0 164.364 5.94316 164.364 13.2719Z" fill="var(--fill-0, #EEEAE2)"/>
<path id="Vector_4" d="M129.854 0H102.381C100.905 0 99.7074 1.18916 99.7074 2.65438V58.5079C99.7074 65.8366 105.694 71.7798 113.076 71.7798H129.854C131.33 71.7798 132.528 70.5906 132.528 69.1254V2.65438C132.528 1.18916 131.33 0 129.854 0ZM113.001 31.5526L107.354 35.8899V35.927L113.001 40.2271V41.5411L106.435 36.3969V35.3829L113.001 30.2387V31.5526Z" fill="var(--fill-0, #EEEAE2)"/>
<path id="Vector_5" d="M51.5128 58.5079V0H31.4836C30.0077 0 28.8098 1.18916 28.8098 2.65438V58.5079C28.8098 65.8366 34.7964 71.7798 42.1786 71.7798H64.8816C57.4993 71.7798 51.5128 65.8366 51.5128 58.5079Z" fill="var(--fill-0, #EEEAE2)"/>
<path id="Vector_6" d="M82.0926 0H65.3147C63.8361 0 62.6383 1.18916 62.6383 2.65438V69.1254C62.6383 70.5906 63.8361 71.7798 65.3121 71.7798H92.785C94.2609 71.7798 95.4588 70.5906 95.4588 69.1254V13.2719C95.4614 5.94316 89.4749 0 82.0926 0ZM81.8921 40.5643C82.5097 40.5643 83.0953 40.4421 83.6354 40.2298C82.2343 42.2816 79.8654 43.6274 77.1809 43.6274C72.8761 43.6274 69.3842 40.1634 69.3842 35.8872C69.3842 31.611 72.8735 28.1471 77.1809 28.1471C79.8654 28.1471 82.2343 29.4955 83.6354 31.5447C83.0953 31.3297 82.507 31.2102 81.8921 31.2102C79.2905 31.2102 77.1809 33.3045 77.1809 35.8872C77.1809 38.4699 79.2905 40.5643 81.8921 40.5643Z" fill="var(--fill-0, #EEEAE2)"/>
<path id="Vector_7" d="M195.853 0H212.631C220.011 0 226 5.94581 226 13.2719V69.1254C226 70.5906 224.802 71.7798 223.326 71.7798H195.853C194.377 71.7798 193.18 70.5906 193.18 69.1254V2.65438C193.18 1.18916 194.377 0 195.853 0Z" fill="var(--fill-0, #EEEAE2)"/>
<g id="Group">
<path id="Vector_8" d="M3.20852 86.6098L3.17376 86.3895L2.9866 86.355L2.90104 86.3709L2.81547 86.2515L2.72991 86.0471L2.69516 85.8268L2.60959 85.7073L2.59355 85.5374V85.3835L2.64435 85.2985V85.2136L2.71387 85.0782V84.8234L2.66307 84.704L2.67911 84.6349V84.2102L2.69516 84.0059V83.9368L2.67911 83.7325V83.4776L2.66307 83.2918L2.71387 83.1219L2.67911 82.7822V81.4922L2.66307 81.2718L2.67911 81.0515V80.6268L2.62831 80.4915L2.64435 80.3375L2.60959 80.1835L2.62564 79.7589L2.64168 79.435L2.7112 78.5511L2.74596 78.2618V77.8716L2.72991 77.4124V76.9718L2.71387 76.4117V75.7667L2.72991 74.9518L2.74596 74.4421L2.83152 74.3067L2.93312 74.2722L3.06948 74.3067L3.22456 74.2908H4.09621L4.16573 74.3067L4.25129 74.2722L4.33685 74.2882L4.45717 74.3041L4.57749 74.2537L4.66305 74.3041L4.73256 74.2696L4.86893 74.2351L5.02401 74.3041H5.14432L5.24593 74.2696L5.36625 74.3041L5.38229 74.6598L5.39833 74.9836V75.4083L5.41437 75.5941L5.39833 75.8489L5.41437 76.0878V76.3082L5.43042 76.563L5.41437 76.7833L5.37962 76.9027L5.39566 76.9532H5.44646L5.4625 76.9372V76.9532L5.44646 77.054L5.3609 77.0885L5.32614 77.1045L5.3609 77.1894L5.4117 77.3089L5.42774 77.4097V77.9353L5.39298 78.1052L5.35823 78.1901L5.30742 78.206L5.27266 78.291V78.4609L5.28871 78.5458L5.33951 78.5617L5.37427 78.5962V78.6971L5.35823 78.8165H5.30742L5.27266 78.8856V78.936L5.28871 79.0554L5.30475 79.1563L5.35555 79.1908V79.2598L5.30475 79.3288V79.3979L5.32079 79.4828L5.30475 79.6527V79.8571L5.37427 79.9075L5.33951 79.9765V80.2658L5.40903 80.5897L5.44379 80.9454L5.45983 81.455L5.47587 81.8638V82.3734L5.45983 82.9176V83.2732L5.42507 83.5626V83.9873L5.39031 84.3111L5.37427 84.8048L5.33951 85.2455L5.32347 85.4153L5.25395 85.6542L5.23791 85.8241L5.15235 85.925L5.03203 86.0099L4.93042 85.994L4.8101 86.063L4.77534 86.1639L4.70583 86.1798L4.62027 86.1453L4.53471 86.1957H4.49995L4.44915 86.1798L4.36358 86.2143L4.29407 86.1639L4.24327 86.1479L4.19246 86.2488L4.1577 86.4028V86.3178L4.1069 86.1479H4.03739L3.98658 86.217L3.85022 86.3523L3.83418 86.4028L3.81814 86.4187L3.78338 86.3497L3.69782 86.2992L3.6283 86.3683L3.61226 86.5726L3.5775 86.708H3.56146L3.5267 86.6231V86.4877L3.49194 86.4373L3.42242 86.4718L3.33686 86.5063L3.3021 86.6257L3.26734 86.846L3.23258 86.9814L3.19782 86.9973V86.6072L3.20852 86.6098Z" fill="var(--fill-0, #EEEAE2)"/>
<path id="Vector_9" d="M36.7482 86.6947H35.791L35.6707 86.6257L35.3285 86.5408L34.9515 86.3709L34.5932 86.132L34.1306 85.8772L33.8392 85.6224L33.6841 85.4366L33.513 85.2508L33.3418 84.911L33.1868 84.6403L33.1012 84.3695L32.9648 83.9103L32.914 83.3502V82.7556L32.898 82.315L32.8632 82.0947V81.5691L32.8793 81.1949L32.914 80.5658L32.9301 80.157V79.7164L32.9461 79.1908L32.9809 78.5272V78.0335L32.9969 77.6937V77.1337L33.013 76.8443L33.0477 76.5391L33.0825 75.91L33.1173 75.5862L33.152 75.042L33.1681 74.6173V74.3784L33.2697 74.2775L33.4408 74.2616L33.4916 74.2775L33.6119 74.2616L33.7135 74.2961L33.7991 74.2457L33.9007 74.2802H33.9702L34.0397 74.3306L34.0745 74.3147L34.16 74.2457L34.2616 74.2802L34.4167 74.2643L34.5878 74.2988L34.6894 74.2298H34.7589L34.8285 74.2643L34.9648 74.2483L35.0851 74.2324L35.2215 74.2483H35.3071L35.4434 74.2829L35.6493 74.2669L35.7696 74.2829L35.8044 74.5032V74.9969L35.7883 75.557L35.7723 75.8277V76.2179L35.7563 76.8815L35.7402 77.4071V77.646L35.7242 77.7999L35.7589 78.2087V80.2473L35.7429 80.4331L35.7268 80.672L35.6921 81.2665L35.6573 82.031L35.6226 82.6256L35.5878 82.9149L35.6226 83.1193L35.6921 83.4245L35.914 83.6449L36.2402 83.8997L36.7375 84.0191L37.045 84.0696L37.3525 84.1386L37.6439 84.1227L37.9354 83.9687L38.2081 83.7829L38.3445 83.7325L38.4808 83.5626L38.6519 83.2069L38.7723 82.7981L38.807 82.4743L38.8418 82.1186L38.8765 81.9328L38.8418 81.8638V81.4895L38.8765 81.0144V80.08L38.8605 79.7562V78.1423L38.8765 77.8026L38.8926 77.6672L38.9086 77.4628L38.8926 77.1735L38.9086 76.8337V76.4249L38.8926 75.9153L38.9086 75.5251V75.3712L38.8578 75.2013L38.8926 75.0314L38.8418 74.8615L38.8765 74.6571L38.8418 74.5377L38.8257 74.4182L38.8605 74.3492L38.9461 74.3333L39.0664 74.2829L39.2215 74.2988L39.3926 74.3333L39.5129 74.2829L39.5985 74.2988L39.668 74.2829L39.7535 74.3174L39.8551 74.2669L39.9407 74.3174L40.4541 74.2829L40.5904 74.2988L40.8311 74.2643L41.2428 74.3147L41.3792 74.2802L41.4808 74.3306V74.6863L41.5155 75.3154V77.1151L41.4808 78.2697V78.8802L41.4968 79.5598L41.5129 80.1384V81.8027L41.4781 82.0071V82.3124L41.4434 82.9229L41.3578 83.3635L41.323 83.6342L41.2027 83.905L41.0316 84.2448L40.7749 84.7199L40.4487 85.0756L40.2428 85.3304L40.0209 85.5693L39.6947 85.7551L39.4728 85.8905L39.3525 86.0099L39.2161 86.0949L38.8899 86.2488L38.6172 86.3497L38.2749 86.4691L38.053 86.57L37.7963 86.6204L37.6413 86.6549L37.5557 86.7054H37.4354L36.7509 86.6894L36.7482 86.6947Z" fill="var(--fill-0, #EEEAE2)"/>
<path id="Vector_10" d="M69.2104 86.4904L69.1409 86.5063L68.935 86.286L68.919 85.8772L68.935 85.7418L69.0045 85.641L69.0206 85.2667L69.0366 84.7225L69.0206 84.3828L69.0366 84.0271V83.7033L69.0527 83.0927V82.2088L69.0874 81.7841V81.2055L69.1035 80.8312V80.5605L69.0874 80.3561L69.1035 79.8624V79.5067L69.1382 79.1165V78.5219L69.173 77.8424L69.189 77.4177L69.2051 77.0089L69.2398 76.3453L69.3254 75.6658L69.3414 75.1216L69.3575 74.8827L69.3922 74.5775L69.5126 74.3917L69.6329 74.4076L69.7692 74.3917L70.1623 74.3572L70.3494 74.3227L70.4858 74.3386H70.6917L70.7933 74.3545L70.8628 74.3041L70.9484 74.2537L71.0179 74.2882L71.1034 74.3227L71.189 74.2722H71.3254L71.4804 74.2032L71.5152 74.2537L71.55 74.2191L71.6195 74.1846L71.689 74.2351H71.8949L72.066 74.2696L72.1008 74.32V74.4395L72.3066 74.8297L72.4617 75.1349L72.6168 75.5437L72.7024 75.7481L72.804 75.9525L72.9403 76.2577L73.0419 76.5285V76.6293L73.1114 76.7143L73.2986 77.123L73.4537 77.4973L73.4884 77.6168L73.574 77.7707L73.7104 78.0255L73.812 78.3149L73.8815 78.4688L73.9831 78.6546L74.1194 79.0634L74.1702 79.1828L74.205 79.3023L74.2745 79.3182L74.3253 79.2174L74.3601 79.082L74.4109 78.9811L74.4269 79.1006L74.3414 79.3395L74.2719 79.4748H74.3574L74.4082 79.374L74.4938 79.2386L74.5446 79.0183L74.6462 78.798L74.7317 78.644L74.7825 78.4741L74.9029 78.2697L74.9376 78.1158L74.9724 78.0308L75.0419 77.9459L75.0927 77.7601L75.1783 77.5212L75.2478 77.4203L75.2986 77.1496L75.4002 76.8443L75.4697 76.7435L75.5553 76.5391L75.6408 76.2498L75.7264 76.0958L75.7611 75.9764L75.8467 75.841L76.0339 75.4508L76.2745 74.8562L76.3601 74.6173L76.3761 74.4819L76.4269 74.4474L76.598 74.4315L76.7531 74.397L76.8387 74.4129L76.959 74.397L77.1649 74.3811H77.4055L77.6622 74.3466L77.8173 74.3811L77.8868 74.397L77.9723 74.2961L78.0927 74.3466L78.1435 74.3625L78.1943 74.328L78.3146 74.2775L78.4857 74.2616L78.606 74.2457L78.6755 74.2298L78.7771 74.2643L78.8467 74.3492H78.8814L78.8975 74.2988V74.2483H78.9322L78.9483 74.3678V74.7076L78.983 75.0128L78.9991 75.3526L79.0151 75.6233L79.0312 75.979L79.0472 76.3188V76.8125L79.0312 77.3221L78.9804 78.0176L78.9456 78.7475V79.1377L78.9108 79.7827L78.9269 80.4118L78.9108 81.0568L78.9269 81.6355V82.5858L78.9108 82.9096V83.6236L78.8948 84.0138L78.8788 84.6588L78.8627 85.118V85.5932L78.8467 85.9489L78.8306 86.0842L78.7611 86.1187L78.7103 86.0497H78.6943L78.6782 86.0842L78.6943 86.1347V86.2196L78.5579 86.3205L78.4028 86.286L78.2157 86.27L78.1301 86.355L78.0606 86.3205H77.9055L77.8547 86.3709L77.8387 86.3205L77.8039 86.27H77.7531L77.737 86.355H77.6675L77.6167 86.286L77.5312 86.217L77.4804 86.201L77.4643 86.286L77.4296 86.4054L77.344 86.3895L77.1889 86.3736L76.7451 86.4081L76.6087 86.3391H76.4884L76.4376 86.1692L76.4028 85.9993V83.5865L76.3868 83.2308L76.3708 82.5167V82.1266L76.3547 81.3621L76.3387 80.9878V80.3932L76.3226 80.0535L76.2879 79.9181L76.1328 80.1729L75.9964 80.4968L75.8414 80.8365L75.6355 81.2612L75.5339 81.4656L75.4135 81.7204L75.2772 82.0098L75.2424 82.1292L75.1729 82.1982L75.1569 82.2832L75.1061 82.3177L75.1221 82.3681L75.0713 82.4185L74.9162 82.5035L74.8307 82.538L74.7799 82.5035L74.8307 82.469V82.453L74.7104 82.4185L74.4697 82.4345L74.3146 82.469L74.2638 82.5194L74.058 82.6043L73.7852 82.6203H73.5125L73.2558 82.6548L73.0687 82.6388L72.9831 82.538L73.0179 82.3177L72.8975 82.0283L72.812 81.893L72.7264 81.6727L72.4858 81.163L72.3494 80.8923L72.2478 80.672L72.1783 80.5366L72.1435 80.3826L72.0419 80.1623L71.9564 79.9924H71.9403V80.0429L71.9243 80.1782L71.8735 80.2127L71.8574 80.1437L71.8227 79.9898L71.7719 79.8703H71.6863L71.6703 79.9048V80.1251L71.6355 80.5844L71.6195 81.1949L71.6034 81.5506L71.5874 81.9912V82.1956L71.6034 82.4159L71.5874 82.5858V82.7397L71.5713 83.0795L71.5366 83.5546L71.5205 84.1492L71.5045 84.4889V85.0145L71.4885 85.2348L71.4377 85.6091L71.4216 85.9993L71.3869 86.0842H71.3173L71.2826 86.1002L71.2131 86.2355L71.0419 86.3046L70.9056 86.2355L70.6649 86.3709L70.5633 86.3019L70.5125 86.3523L70.443 86.4028H70.3735L70.2879 86.3868L70.1516 86.3523L70.066 86.4213L70.05 86.4718L69.9644 86.4558L69.8949 86.4718L69.7398 86.4558L69.5527 86.5063L69.4163 86.5408H69.296L69.2265 86.4904H69.2104Z" fill="var(--fill-0, #EEEAE2)"/>
<path id="Vector_11" d="M107.063 86.6098L107.028 86.3895L106.841 86.355L106.755 86.3709L106.67 86.2515L106.584 86.0471L106.55 85.8268L106.464 85.7073L106.448 85.5374V85.3835L106.499 85.2985V85.2136L106.568 85.0782V84.8234L106.517 84.704L106.533 84.6349V84.2102L106.55 84.0059V83.9368L106.533 83.7325V83.4776L106.517 83.2918L106.568 83.1219L106.533 82.7822V81.4922L106.517 81.2718L106.533 81.0515V80.6268L106.483 80.4915L106.499 80.3375L106.464 80.1835L106.48 79.7589L106.496 79.435L106.566 78.5511L106.6 78.2618V77.8716L106.584 77.4124V76.9718L106.568 76.4117V75.7667L106.584 74.9518L106.6 74.4421L106.686 74.3067L106.788 74.2722L106.924 74.3067L107.079 74.2908H107.951L108.02 74.3067L108.106 74.2722L108.191 74.2882L108.312 74.3041L108.432 74.2537L108.517 74.3041L108.587 74.2696L108.723 74.2351L108.878 74.3041H108.999L109.1 74.2696L109.221 74.3041L109.237 74.6598L109.253 74.9836V75.4083L109.269 75.5941L109.253 75.8489L109.269 76.0878V76.3082L109.285 76.563L109.269 76.7833L109.234 76.9027L109.25 76.9532H109.301L109.317 76.9372V76.9532L109.301 77.054L109.215 77.0885L109.181 77.1045L109.215 77.1894L109.266 77.3089L109.282 77.4097V77.9353L109.247 78.1052L109.213 78.1901L109.162 78.206L109.127 78.291V78.4609L109.143 78.5458L109.194 78.5617L109.229 78.5962V78.6971L109.213 78.8165H109.162L109.127 78.8856V78.936L109.143 79.0554L109.159 79.1563L109.21 79.1908V79.2598L109.159 79.3288V79.3979L109.175 79.4828L109.159 79.6527V79.8571L109.229 79.9075L109.194 79.9765V80.2658L109.263 80.5897L109.298 80.9454L109.314 81.455L109.33 81.8638V82.3734L109.314 82.9176V83.2732L109.279 83.5626V83.9873L109.245 84.3111L109.229 84.8048L109.194 85.2455L109.178 85.4153L109.108 85.6542L109.092 85.8241L109.007 85.925L108.886 86.0099L108.785 85.994L108.664 86.063L108.63 86.1639L108.56 86.1798L108.475 86.1453L108.389 86.1957H108.354L108.304 86.1798L108.218 86.2143L108.148 86.1639L108.098 86.1479L108.047 86.2488L108.012 86.4028V86.3178L107.961 86.1479H107.892L107.841 86.217L107.705 86.3523L107.689 86.4028L107.673 86.4187L107.638 86.3497L107.552 86.2992L107.483 86.3683L107.467 86.5726L107.432 86.708H107.416L107.381 86.6231V86.4877L107.346 86.4373L107.277 86.4718L107.191 86.5063L107.156 86.6257L107.122 86.846L107.087 86.9814L107.052 86.9973V86.6072L107.063 86.6098Z" fill="var(--fill-0, #EEEAE2)"/>
<path id="Vector_12" d="M137.351 86.4213V86.3019H137.196L137.009 86.2515H136.667L136.496 86.201L136.461 85.9966L136.496 85.7763L136.565 85.641L136.549 85.556L136.514 85.5215L136.549 85.3357L136.498 85.1313V84.8075L136.533 84.7385L136.498 84.619L136.514 84.4491L136.48 84.2793L136.496 84.2102L136.445 84.0059L136.429 83.5971L136.413 83.3078V82.9176L136.397 82.392V81.8478L136.381 81.5426V81.0489L136.397 80.6587V79.9287L136.413 78.4688L136.429 77.6884V77.2292L136.48 76.4143L136.549 75.7348V75.1907L136.565 74.9863V74.6624L136.581 74.543L136.632 74.3731L136.905 74.3227L137.076 74.3386L137.196 74.3227L137.333 74.3067L137.52 74.2563H137.675L137.71 74.2908L137.779 74.2749L137.849 74.2908L137.918 74.2749L138.038 74.2404H138.194L138.466 74.19L138.603 74.2059L138.704 74.1714L138.806 74.1873H139.012L139.338 74.1528H139.629L140.656 74.1873L140.929 74.2032L141.391 74.2537L141.819 74.3545L142.212 74.5085L142.504 74.6784L142.776 74.8642L143.068 75.0845L143.223 75.2384L143.445 75.4083L143.736 75.6472L143.942 75.8516L144.148 76.1064L144.405 76.4621L144.696 76.9213L144.937 77.4469L145.092 77.9061L145.177 78.3149L145.279 78.7741L145.365 79.1988L145.399 79.589L145.469 80.0137L145.504 80.5233L145.52 81.102L145.469 81.4417L145.418 81.816L145.332 82.2248L145.263 82.5141L145.127 82.9733L144.886 83.4989L144.731 83.8227L144.645 84.0085L144.474 84.2633L144.338 84.5872L144.081 84.8924L143.894 85.1127L143.792 85.2826L143.552 85.4684L143.45 85.6224L143.263 85.7577L143.006 85.9276L142.905 85.9621L142.734 86.0471L142.597 86.132L142.477 86.1479L142.29 86.2674L141.998 86.3364L141.605 86.4213L141.212 86.4718L140.87 86.5063L140.699 86.4904V86.4558L140.768 86.3868L140.838 86.2674L140.768 86.217L140.648 86.2329L140.546 86.2488H140.461L140.391 86.3497L140.426 86.4505V86.501L140.325 86.5169L139.966 86.5328L139.881 86.5169L139.846 86.4824L139.897 86.4665L140.033 86.4505L140.119 86.4346L139.982 86.4187L139.827 86.4028L139.843 86.3337L139.859 86.3178H139.929L140.1 86.3523L140.22 86.3019L140.033 86.286L139.811 86.27L139.675 86.3045L139.212 86.27H139.092L138.956 86.3045L138.835 86.2886H138.699L138.512 86.2382L138.41 86.2886L138.223 86.2727L137.982 86.2886L137.846 86.2727L137.76 86.2223L137.744 86.1718L137.608 86.2727L137.437 86.3231L137.421 86.4426V86.5434L137.386 86.5594L137.37 86.424L137.351 86.4213ZM139.934 84.0961L140.26 84.0616L140.808 83.9926L141.236 83.8227L141.68 83.6369L141.972 83.4166L142.143 83.2308L142.279 83.0264L142.434 82.7556L142.656 82.1106L142.862 81.3807L142.913 80.6852L142.897 80.2605L142.862 80.0747L142.846 79.7004L142.76 79.1908L142.71 78.9705L142.659 78.8006L142.472 78.3255L142.044 77.7813L141.172 77.0673L140.95 76.9664H140.795L140.64 76.916L140.212 76.8656L139.562 76.8151H139.204L139.153 76.8496L139.137 76.9001L139.121 77.3407L139.105 77.9857V78.9201L139.089 79.4801L139.073 80.2446L139.057 80.6852L139.022 80.7861L139.038 80.956V81.4497L139.022 81.8585L139.006 81.9938L138.956 82.0788L138.94 82.1796V82.7583L138.923 82.9441L138.974 83.114L138.94 83.183L138.905 83.3369V83.6767L138.974 83.966V84.051L138.99 84.1014L139.041 84.1359L139.314 84.1518L139.948 84.1014L139.934 84.0961Z" fill="var(--fill-0, #EEEAE2)"/>
<path id="Vector_13" d="M155.677 86.4213L155.541 86.4054L155.354 86.4213L155.081 86.4054L154.894 86.4558L154.792 86.4054H154.621L154.348 86.4558L154.247 86.4399L154.092 86.424L154.006 86.3736L153.937 86.3576L153.902 86.2223L153.953 86.0179L153.969 85.7631L154.004 85.4233L154.02 84.9641V84.6933L154.036 84.2182L154.02 83.9979L154.054 83.913V83.5732L154.07 83.1989V82.6548L154.105 82.0602V81.0409L154.121 80.5817V80.0216L154.137 79.6978V79.1722L154.102 78.5776L154.086 77.9486L154.052 77.354V77.0301L154.086 76.401L154.121 76.0958L154.137 75.8065V75.2119L154.121 74.9411V74.4819L154.242 74.4474L154.311 74.3784L154.397 74.3943L154.552 74.3784L154.792 74.3625H154.979L155.065 74.3466H155.373L155.442 74.3306H155.512L155.683 74.3147L155.905 74.2988L156.006 74.2483L156.193 74.2643L156.501 74.2298L156.792 74.2138L156.929 74.1634H157.1L158.418 74.2324L158.659 74.2483L158.864 74.2643L159.105 74.3147L159.431 74.2988H160.252L160.322 74.2829L160.477 74.2988H160.749L161.057 74.3147L161.263 74.3306L161.364 74.3147L161.434 74.4156L161.503 74.535L161.538 74.7049L161.64 74.8244L161.741 75.265L161.691 75.4694L161.656 75.5888V75.6738L161.757 76.0135L161.808 76.0985L161.707 76.1675L161.57 76.2365L161.415 76.4568L161.209 76.6771L161.003 76.8311L160.883 76.8151L160.782 76.7647L160.712 76.7806L160.61 76.7647L160.338 76.7488L160.081 76.7647L159.995 76.8151H159.498L157.479 76.8496H156.83L156.814 76.9691V78.0892L156.798 78.5644L156.814 78.7688L156.883 78.8033L157.498 78.7873H158.541L159.054 78.8219H159.241L159.397 78.8723L159.533 78.8564H159.704L159.875 78.8723L159.995 78.9068L160.132 78.9413L160.217 78.9068H160.354L160.525 79.0767L160.56 79.212L160.576 79.3819L160.696 79.5173L160.626 79.6527L160.712 79.788L160.677 79.8889L160.693 80.0588L160.763 80.1782L160.693 80.2791L160.659 80.4145L160.643 80.5498L160.626 80.6507L160.696 80.7011L160.747 80.7516L160.696 80.8206L160.61 80.8365L160.49 80.9215L160.37 81.1259L160.421 81.2267V81.2772L160.215 81.3276L160.094 81.463H159.803L159.049 81.4284H158.466L157.902 81.4444L157.148 81.4789L156.72 81.5293L156.584 81.6143L156.568 81.7151L156.533 82.0708L156.517 82.7158L156.501 83.1565L156.485 83.4803L156.501 83.7351L156.843 83.751H157.22L157.391 83.7855H157.889L158.094 83.82L158.522 83.8705L158.934 83.8546H160.132L160.354 83.82L160.626 83.836L160.899 83.82L161.105 83.8546L161.175 83.9554L161.225 84.0908L161.241 84.2262L161.343 84.3111L161.327 84.3961L161.257 84.481L161.327 84.55L161.362 84.6695L161.292 84.704L161.241 84.7199V84.7703L161.327 84.8393L161.362 84.9588L161.292 85.1287L161.257 85.349L161.188 85.4684L161.308 85.5534L161.378 85.6038L161.343 85.6542L161.207 85.7047L161.052 85.8055L161.001 85.9595L161.017 86.0603L161.001 86.1108L160.899 86.1612L160.763 86.2116L160.661 86.2807L160.335 86.2647L159.977 86.2992H158.899L158.693 86.3337L158.557 86.3683L158.335 86.3842H157.394L156.83 86.4001H156.11L155.803 86.416L155.733 86.485H155.699L155.683 86.416L155.677 86.4213Z" fill="var(--fill-0, #EEEAE2)"/>
<path id="Vector_14" d="M172.292 86.5249L172.001 86.4558L171.76 86.3364H171.605L171.535 86.3019L171.313 86.217L170.955 86.0471L170.733 85.9276L170.597 85.8268L170.375 85.6914L170.22 85.5719L170.065 85.487L169.945 85.3675L169.773 85.2322L169.637 85.0782L169.653 85.0092L169.618 84.9243V84.8393L169.669 84.7703L169.771 84.6854L169.84 84.6004V84.5155L169.875 84.4651L169.995 84.3456L170.046 84.3297L170.062 84.2288L170.132 84.1598L170.148 84.0908L170.182 84.0404L170.319 83.9209L170.388 83.751L170.474 83.7165L170.525 83.5626L170.594 83.4272L170.68 83.3768L170.696 83.2759L170.731 83.2414L170.781 83.1405L170.918 83.1246L171.003 83.1936H171.038L171.022 83.1246L171.124 83.0742L171.466 83.2945L171.894 83.5838L172.22 83.7696L172.527 83.82L172.886 83.836L173.33 83.6661L173.602 83.4962L173.843 83.106L174.03 82.5459L174.014 82.2062L173.944 82.0708L173.859 81.885L173.789 81.6806L173.72 81.5957L173.634 81.4948L173.514 81.4258L173.428 81.3409L173.308 81.1869L173.188 81.0515L173.051 80.9321L172.966 80.8312L172.846 80.7463L172.316 80.3057L171.974 79.95L171.733 79.6792L171.255 79.1191L170.912 78.5246L170.811 78.2538L170.709 77.845L170.674 77.3699L170.69 76.7408L170.76 76.4701L170.982 76.0454L171.118 75.8251L171.239 75.6552L171.324 75.5357L171.565 75.2809L171.787 75.0606L172.009 74.8748L172.281 74.6704L172.624 74.4501L173.067 74.2961L173.308 74.1953L173.685 74.0758L174.404 73.9909L175.209 74.0254L175.688 74.0758L175.859 74.1103L175.96 74.1608L175.977 74.2298L175.926 74.2457L175.891 74.2802L175.942 74.3492L176.027 74.3837L176.011 74.5191L175.96 74.604L176.03 74.8429H175.96L175.995 74.8934L176.011 74.9783V75.1137L176.062 75.2145V75.265L175.993 75.2809L175.977 75.3499L176.078 75.4508L176.027 75.5012L176.078 75.5517L176.062 75.6366V75.7215L175.977 75.756V75.7905L176.027 75.841L176.129 75.8914L176.18 75.9418V75.9764L176.129 75.9923L176.043 76.0268L176.059 76.1622V76.2975L176.009 76.3665V76.5524L175.958 76.7727L175.907 76.8417L175.787 76.7567L175.375 76.6373L175.067 76.5869H174.399L173.987 76.7222L173.867 76.8231L173.731 76.924L173.575 77.0938L173.506 77.4681L173.712 77.8079L174.07 78.1476L174.533 78.5883L174.824 78.8431L175.097 79.1324L175.575 79.6075L176.054 80.1862L176.482 80.7649L176.618 81.0542L176.84 81.6833L176.96 82.2938L176.995 82.7026L176.96 83.1273L176.755 83.7723L176.583 84.128L176.225 84.7385L175.918 85.0782L175.731 85.2322L175.61 85.3861L175.132 85.7949L174.789 86.0152L174.431 86.201L174.003 86.355L173.661 86.4558L173.388 86.5063L172.773 86.5567L172.276 86.5222L172.292 86.5249Z" fill="var(--fill-0, #EEEAE2)"/>
<path id="Vector_15" d="M185.674 86.6098L185.639 86.3895L185.452 86.355L185.367 86.3709L185.281 86.2515L185.196 86.0471L185.161 85.8268L185.075 85.7073L185.059 85.5374V85.3835L185.11 85.2985V85.2136L185.18 85.0782V84.8234L185.129 84.704L185.145 84.6349V84.2102L185.161 84.0059V83.9368L185.145 83.7325V83.4776L185.129 83.2918L185.18 83.1219L185.145 82.7822V81.4922L185.129 81.2718L185.145 81.0515V80.6268L185.094 80.4915L185.11 80.3375L185.075 80.1835L185.091 79.7589L185.107 79.435L185.177 78.5511L185.212 78.2618V77.8716L185.196 77.4124V76.9718L185.18 76.4117V75.7667L185.196 74.9518L185.212 74.4421L185.297 74.3067L185.399 74.2722L185.535 74.3067L185.69 74.2908H186.562L186.631 74.3067L186.717 74.2722L186.803 74.2882L186.923 74.3041L187.043 74.2537L187.129 74.3041L187.198 74.2696L187.335 74.2351L187.49 74.3041H187.61L187.712 74.2696L187.832 74.3041L187.848 74.6598L187.864 74.9836V75.4083L187.88 75.5941L187.864 75.8489L187.88 76.0878V76.3082L187.896 76.563L187.88 76.7833L187.845 76.9027L187.861 76.9532H187.912L187.928 76.9372V76.9532L187.912 77.054L187.827 77.0885L187.792 77.1045L187.827 77.1894L187.877 77.3089L187.893 77.4097V77.9353L187.859 78.1052L187.824 78.1901L187.773 78.206L187.738 78.291V78.4609L187.754 78.5458L187.805 78.5617L187.84 78.5962V78.6971L187.824 78.8165H187.773L187.738 78.8856V78.936L187.754 79.0554L187.77 79.1563L187.821 79.1908V79.2598L187.77 79.3288V79.3979L187.787 79.4828L187.77 79.6527V79.8571L187.84 79.9075L187.805 79.9765V80.2658L187.875 80.5897L187.91 80.9454L187.926 81.455L187.942 81.8638V82.3734L187.926 82.9176V83.2732L187.891 83.5626V83.9873L187.856 84.3111L187.84 84.8048L187.805 85.2455L187.789 85.4153L187.72 85.6542L187.704 85.8241L187.618 85.925L187.498 86.0099L187.396 85.994L187.276 86.063L187.241 86.1639L187.172 86.1798L187.086 86.1453L187 86.1957H186.966L186.915 86.1798L186.829 86.2143L186.76 86.1639L186.709 86.1479L186.658 86.2488L186.623 86.4028V86.3178L186.573 86.1479H186.503L186.452 86.217L186.316 86.3523L186.3 86.4028L186.284 86.4187L186.249 86.3497L186.164 86.2992L186.094 86.3683L186.078 86.5726L186.043 86.708H186.027L185.992 86.6231V86.4877L185.958 86.4373L185.888 86.4718L185.803 86.5063L185.768 86.6257L185.733 86.846L185.698 86.9814L185.664 86.9973V86.6072L185.674 86.6098Z" fill="var(--fill-0, #EEEAE2)"/>
<path id="Vector_16" d="M200.613 86.8646L200.15 86.7797H199.979L199.738 86.6788L199.583 86.6098L199.428 86.5594L199.187 86.4399L199 86.3895L198.915 86.2886L198.794 86.2727L198.744 86.2223L198.572 86.0869L198.265 85.7976L198.059 85.5773L197.939 85.5268L197.869 85.426L197.682 85.1871L197.546 84.9163L197.476 84.7624L197.407 84.6429L197.236 84.4385L197.115 84.0988L196.995 83.8439L196.944 83.69L196.96 83.5891L196.925 83.5042L196.875 83.4352L196.84 83.2812L196.789 83.1458L196.754 82.8751L196.653 82.4849L196.618 82.1292L196.567 81.9593L196.551 81.6036L196.415 81.0091L196.329 80.5844L196.364 80.38V79.7695L196.415 79.5492L196.399 79.2439L196.468 79.0395L196.484 78.9387L196.468 78.7528L196.484 78.583L196.45 78.5139L196.519 78.3945L196.554 78.2751L196.503 78.2246L196.573 78.0892V77.8344L196.642 77.6645L196.693 77.5292L196.762 77.2903L196.797 77.1045L196.899 76.8337L197 76.4595L197.121 76.3241L197.257 76.0852L197.463 75.7109L197.548 75.5251L197.65 75.4561L198.027 75.0818L198.284 74.8774L198.556 74.6385L198.797 74.4846L199.396 74.1953L199.789 74.0944L199.859 74.1103L200.046 74.0599L200.286 74.0095L200.441 73.9404L200.562 73.9564L200.663 73.9219L200.8 73.9378L200.936 73.8874H201.123L201.225 73.8529H201.361L201.498 73.8369H201.77L202.3 73.8714L202.42 73.8874L202.556 73.9378L202.984 74.0227L203.105 74.0572L203.326 74.0917L203.514 74.1608L203.872 74.3147L204.198 74.5005L204.61 74.7713L204.765 74.8907L204.8 74.9757L204.765 75.0765L204.695 75.2305L204.575 75.3154L204.506 75.4004L204.49 75.5357L204.404 75.5862L204.334 75.6366V75.756L204.265 75.8569L204.145 75.9259L204.161 75.9949L204.145 76.0109H204.11L204.04 75.9949L204.006 76.1144L204.04 76.2153H203.904L203.853 76.3002L203.768 76.3692L203.752 76.4701L203.65 76.5046L203.564 76.6745L203.495 76.7435L203.444 76.8125L203.359 76.8629L203.257 76.9638H203.155L203.121 76.9797L202.899 76.8258L202.658 76.6718L202.436 76.5709L201.957 76.4701L201.53 76.4541L201.428 76.4196L201.444 76.4037V76.3878L201.359 76.3719L201.118 76.4064L200.845 76.4409L200.744 76.4754L200.674 76.5603L200.348 76.6612L199.99 76.8815L199.733 77.1204L199.476 77.63L199.289 78.2087L199.204 78.5644L199.187 78.8696L199.153 79.2253L199.118 79.5492L199.083 79.735L199.118 80.1252L199.153 80.4145V80.5339L199.187 81.0276L199.273 81.4523L199.343 81.7762L199.412 82.0469L199.532 82.4026L199.669 82.7769L199.805 83.0662L199.992 83.4405L200.385 83.7457L200.693 83.8652L201 84.0005L201.343 84.1014L201.564 84.1173L201.786 84.1014L202.043 84.0669L202.214 83.9979L202.385 83.8625L202.54 83.6926L202.556 83.5732L202.54 83.1989L202.506 82.6203L202.455 82.1106V81.7709L202.42 81.6514L202.265 81.6355L201.032 81.7709L200.519 81.8399L200.383 81.824L200.367 81.7895L200.401 81.7549L200.417 81.7204L200.348 81.6196L200.364 81.5506V81.4815L200.348 81.3621L200.399 81.1763L200.383 80.9905V80.8896L200.399 80.8206L200.383 80.7012L200.399 80.5658L200.415 80.4968L200.399 80.3773V80.1729L200.364 80.0721L200.399 79.6978L200.433 79.6288L200.399 79.5093L200.433 79.3554L200.449 79.3049L200.69 79.2041L201.187 79.1032L201.786 79.0687L202.401 79.0528H202.845L203.016 79.0369L203.428 79.0528H203.872L203.973 79.1032L204.075 79.0342L204.211 79.0501L204.383 79.0156L204.503 79.0315L204.572 78.997L204.693 79.013H204.794L204.949 78.9785L205.086 78.9944L205.137 79.1298L205.171 79.5385L205.155 80.0482V80.5737L205.121 81.2878L205.104 81.7974V82.1027L205.139 82.6468L205.155 82.9866V83.4962L205.086 83.836L205.07 84.1917L205.019 84.4306L204.899 84.4996L204.797 84.7889L204.677 85.0278L204.642 85.0782L204.572 85.2136L204.436 85.3994L204.3 85.5693L204.027 85.8586L203.634 86.1825L203.377 86.3364L203.292 86.4213L203.121 86.5222L202.915 86.6417L202.829 86.7425H202.693L202.556 86.777H202.436L202.3 86.862L202.094 86.8965L201.957 86.862H201.802L201.58 86.8779L201.393 86.8434L201.206 86.8779L201 86.8434L200.829 86.8938H200.728L200.711 86.9443L200.61 86.8593L200.613 86.8646Z" fill="var(--fill-0, #EEEAE2)"/>
<path id="Vector_17" d="M220.856 86.4399L220.786 86.2196L220.685 86.2037L220.513 86.2727L220.412 86.2382L220.342 86.2886L220.257 86.2541L220.12 86.1347L219.623 85.2348L219.382 84.7093L219.195 84.3854L219.024 84.0297L218.682 83.4007L218.356 82.822L218.235 82.5513L217.995 82.1106L217.722 81.6169L217.535 81.3117L217.123 80.6666L216.832 80.088L216.575 79.6288L216.404 79.358L216.217 79.0687L216.201 79.0342H216.166L216.15 79.1351V80.2393L216.134 80.5286L216.15 80.9029L216.115 81.3276V82.2274L216.099 82.5513V83.2149L216.083 83.5705L216.013 83.6555L216.048 83.7563L216.064 83.8254L216.048 83.8944L216.013 83.9952L216.048 84.1306L216.032 84.2155L215.997 84.3509L215.861 84.4014L215.845 84.4863L215.896 84.5553L215.931 84.6057L215.981 84.5898L216.016 84.5739H216.032V84.5898L216.016 84.6748L215.915 84.7093L215.794 84.7438L215.743 84.8632L215.794 84.9482L215.81 84.9641L215.845 85.0145L215.861 85.049L215.826 85.1844L215.842 85.2693L215.877 85.2534L215.928 85.2879L215.893 85.3729L215.842 85.4578L215.877 85.6277L215.893 85.7976V85.8666L215.963 85.8506L216.013 85.986V86.1214L215.928 86.1559L215.826 86.2063L215.671 86.2223L215.484 86.2568L215.348 86.2727L215.246 86.3072L215.11 86.3231L215.008 86.3576L214.939 86.3417L214.802 86.4107L214.666 86.5116L214.546 86.4267L214.495 86.4107L214.425 86.5461H214.374L214.324 86.5116L214.273 86.5461L214.136 86.5302H213.981L213.88 86.5142L213.794 86.5488L213.709 86.5142L213.607 86.4452V86.2063L213.693 86.0205L213.813 85.9701L213.882 85.9197L213.899 85.8692L213.848 85.8002L213.693 85.8161L213.607 85.6303L213.623 85.3755V85.0703L213.588 84.8659V84.5765L213.623 84.1864L213.588 83.7776L213.623 83.4033L213.607 82.9627V82.6919L213.591 81.9965L213.626 81.2665L213.61 80.587L213.575 79.6367L213.591 78.9227L213.607 78.2936L213.623 77.715V77.3248L213.639 77.07L213.674 76.6107L213.709 76.34L213.725 76.1701L213.759 75.7454L213.776 75.4561L213.826 74.8615V74.5563L213.842 74.5058L213.928 74.4713L214.099 74.4368L214.27 74.4713L214.441 74.4554H214.578L214.679 74.4713L214.765 74.4368L214.971 74.5058L215.04 74.4554L215.177 74.4395L215.332 74.4235L215.468 74.458H215.604L215.674 74.4076L215.776 74.4235L215.845 74.4395L215.915 74.405H216.016L216.136 74.4209L216.257 74.405L216.342 74.4209L216.444 74.3705L216.631 74.5058L216.904 74.8801L217.281 75.4402L217.674 76.0693L217.845 76.3745L218.032 76.6638L218.39 77.2743L218.973 78.2246L219.3 78.8192L219.521 79.2784L219.848 79.804L220.019 80.0933L220.225 80.4171L220.259 80.4012V80.2154L220.275 80.08L220.259 79.9951L220.275 79.8252L220.292 79.6394V79.504L220.257 79.3687L220.273 79.1483L220.222 79.013L220.308 78.6732L220.257 78.5033V78.3175L220.292 78.0972L220.275 77.8769L220.292 77.707L220.308 77.5716L220.292 77.4708L220.308 77.0806L220.342 76.0613L220.358 75.5357L220.342 75.042L220.393 74.6677L220.409 74.5138L220.58 74.4634H221.3L221.401 74.4474L221.503 74.4819L221.604 74.4474L221.759 74.4634L221.896 74.4129H222.051L222.291 74.3784L222.428 74.3943L222.564 74.3784H222.735L222.872 74.3625L222.973 74.397L223.059 74.4129V74.4474L223.043 74.7182V75.3818L223.008 75.9923L222.992 76.486L222.957 77.0965L222.941 77.4363L222.906 78.0149L222.89 78.3202L222.874 78.6759L222.84 79.1855L222.824 79.7296V80.0535L222.808 80.5976L222.791 81.1232L222.775 81.7682V82.108L222.81 82.6017V83.1963L222.794 83.5705L222.778 83.8599V84.3005L222.762 84.5394V84.6933L222.746 85.0676L222.695 85.5932V86.0179L222.644 86.2568L222.543 86.2913L222.422 86.3072L222.267 86.2913L222.166 86.3603L222.115 86.3444L222.029 86.2939L221.96 86.278L221.909 86.347L221.874 86.3815L221.858 86.347L221.722 86.3125L221.586 86.4479L221.5 86.432L221.414 86.3311L221.329 86.3152L221.259 86.416H221.174L221.139 86.3311L221.123 86.3152L221.088 86.2992L221.037 86.3842L221.003 86.5541L220.968 86.708H220.917L220.866 86.4691L220.856 86.4399Z" fill="var(--fill-0, #EEEAE2)"/>
</g>
</g>
<defs>
<clipPath id="clip0_0_119">
<rect width="226" height="87" fill="white"/>
</clipPath>
</defs>
</svg>
