<svg preserveAspectRatio="none" width="100%" height="100%" overflow="visible" style="display: block;" viewBox="0 0 334 130" fill="none" xmlns="http://www.w3.org/2000/svg">
<g id="logo2" clip-path="url(#clip0_0_26)">
<path id="Vector" d="M3.95149 0H13.7868C24.6889 0 33.5442 8.88455 33.5442 19.8316V103.291C33.5442 105.48 31.774 107.257 29.5927 107.257H3.95149C1.77027 107.257 0 105.48 0 103.291V3.96632C0 1.77691 1.77027 0 3.95149 0Z" fill="var(--fill-0, #EEEAE2)"/>
<path id="Vector_2" d="M202.609 19.8316V107.257H232.21C234.391 107.257 236.161 105.48 236.161 103.291V19.8316C236.161 8.88058 227.314 0 216.404 0H182.851C193.761 0 202.609 8.88058 202.609 19.8316Z" fill="var(--fill-0, #EEEAE2)"/>
<path id="Vector_3" d="M242.91 19.8316V107.257H272.511C274.692 107.257 276.462 105.48 276.462 103.291V19.8316C276.462 8.88058 267.615 0 256.705 0H223.153C234.063 0 242.91 8.88058 242.91 19.8316Z" fill="var(--fill-0, #EEEAE2)"/>
<path id="Vector_4" d="M191.908 0H151.307C149.125 0 147.355 1.77691 147.355 3.96632V87.4255C147.355 98.3765 156.203 107.257 167.113 107.257H191.908C194.089 107.257 195.86 105.48 195.86 103.291V3.96632C195.86 1.77691 194.089 0 191.908 0ZM167.002 47.1476L158.656 53.6286V53.6841L167.002 60.1095V62.0729L157.297 54.3861V52.871L167.002 45.1843V47.1476Z" fill="var(--fill-0, #EEEAE2)"/>
<path id="Vector_5" d="M76.1295 87.4255V0H46.5288C44.3476 0 42.5773 1.77691 42.5773 3.96632V87.4255C42.5773 98.3765 51.4247 107.257 62.3348 107.257H95.8869C84.9769 107.257 76.1295 98.3765 76.1295 87.4255Z" fill="var(--fill-0, #EEEAE2)"/>
<path id="Vector_6" d="M121.323 0H96.5271C94.3419 0 92.5716 1.77691 92.5716 3.96632V103.291C92.5716 105.48 94.3419 107.257 96.5231 107.257H137.125C139.306 107.257 141.076 105.48 141.076 103.291V19.8316C141.08 8.88058 132.233 0 121.323 0ZM121.026 60.6133C121.939 60.6133 122.805 60.4308 123.603 60.1135C121.532 63.1795 118.031 65.1904 114.064 65.1904C107.702 65.1904 102.541 60.0143 102.541 53.6246C102.541 47.2349 107.698 42.0588 114.064 42.0588C118.031 42.0588 121.532 44.0737 123.603 47.1357C122.805 46.8144 121.935 46.636 121.026 46.636C117.182 46.636 114.064 49.7654 114.064 53.6246C114.064 57.4838 117.182 60.6133 121.026 60.6133Z" fill="var(--fill-0, #EEEAE2)"/>
<path id="Vector_7" d="M289.447 0H314.243C325.149 0 334 8.88455 334 19.8316V103.291C334 105.48 332.23 107.257 330.048 107.257H289.447C287.266 107.257 285.495 105.48 285.495 103.291V3.96632C285.495 1.77691 287.266 0 289.447 0Z" fill="var(--fill-0, #EEEAE2)"/>
<g id="Group">
<path id="Vector_8" d="M4.74179 129.417L4.69042 129.088L4.41382 129.036L4.28737 129.06L4.16092 128.881L4.03447 128.576L3.98311 128.247L3.85666 128.068L3.83295 127.815V127.585L3.90803 127.458V127.331L4.01077 127.128V126.748L3.93569 126.569L3.9594 126.466V125.831L3.98311 125.526V125.423L3.9594 125.117V124.737L3.93569 124.459L4.01077 124.205L3.9594 123.698V121.77L3.93569 121.441L3.9594 121.111V120.477L3.88432 120.275L3.90803 120.045L3.85666 119.814L3.88037 119.18L3.90408 118.696L4.00681 117.375L4.05818 116.943V116.36L4.03447 115.674V115.015L4.01077 114.178V113.215L4.03447 111.997L4.05818 111.235L4.18463 111.033L4.33479 110.982L4.53631 111.033L4.7655 111.009H6.05369L6.15643 111.033L6.28287 110.982L6.40932 111.005L6.58714 111.029L6.76496 110.954L6.89141 111.029L6.99414 110.978L7.19567 110.926L7.42486 111.029H7.60267L7.75283 110.978L7.93065 111.029L7.95436 111.561L7.97807 112.044V112.679L8.00177 112.957L7.97807 113.338L8.00177 113.694V114.024L8.02548 114.404L8.00177 114.734L7.95041 114.912L7.97411 114.987H8.04919L8.0729 114.964V114.987L8.04919 115.138L7.92274 115.19L7.87138 115.214L7.92274 115.34L7.99782 115.519L8.02153 115.67V116.455L7.97016 116.709L7.91879 116.836L7.84372 116.86L7.79235 116.987V117.24L7.81605 117.367L7.89113 117.391L7.9425 117.443V117.593L7.91879 117.772H7.84372L7.79235 117.875V117.95L7.81605 118.129L7.83976 118.28L7.91484 118.331V118.434L7.83976 118.537V118.64L7.86347 118.767L7.83976 119.021V119.327L7.9425 119.402L7.89113 119.505V119.937L7.99387 120.421L8.04524 120.953L8.06895 121.714L8.09266 122.325V123.087L8.06895 123.9V124.431L8.01758 124.864V125.498L7.96621 125.982L7.9425 126.72L7.89113 127.378L7.86742 127.632L7.76468 127.989L7.74098 128.243L7.61453 128.394L7.43671 128.521L7.28655 128.497L7.10874 128.6L7.05737 128.751L6.95463 128.774L6.82818 128.723L6.70173 128.798H6.65036L6.57529 128.774L6.44884 128.826L6.3461 128.751L6.27102 128.727L6.19594 128.878L6.14457 129.108V128.981L6.06949 128.727H5.96676L5.89168 128.83L5.69015 129.032L5.66644 129.108L5.64273 129.131L5.59136 129.028L5.46492 128.953L5.36218 129.056L5.33847 129.361L5.2871 129.564H5.26339L5.21202 129.437V129.234L5.16065 129.159L5.05791 129.211L4.93146 129.262L4.88009 129.441L4.82873 129.77L4.77736 129.972L4.72599 129.996V129.413L4.74179 129.417Z" fill="var(--fill-0, #EEEAE2)"/>
<path id="Vector_9" d="M54.3093 129.544H52.8947L52.7169 129.441L52.2111 129.314L51.6539 129.06L51.1244 128.703L50.4408 128.322L50.0101 127.941L49.7809 127.664L49.528 127.386L49.2751 126.879L49.0459 126.474L48.9195 126.069L48.718 125.383L48.6429 124.546V123.658L48.6192 122.999L48.5678 122.67V121.885L48.5915 121.326L48.6429 120.386L48.6666 119.775V119.116L48.6903 118.331L48.7417 117.34V116.602L48.7654 116.094V115.257L48.7891 114.825L48.8405 114.369L48.8918 113.429L48.9432 112.945L48.9946 112.132L49.0183 111.497V111.14L49.1684 110.989L49.4213 110.966L49.4964 110.989L49.6742 110.966L49.8244 111.017L49.9508 110.942L50.101 110.993H50.2037L50.3065 111.069L50.3578 111.045L50.4843 110.942L50.6344 110.993L50.8636 110.97L51.1165 111.021L51.2667 110.918H51.3694L51.4721 110.97L51.6737 110.946L51.8515 110.922L52.053 110.946H52.1795L52.381 110.997L52.6853 110.974L52.8631 110.997L52.9144 111.327V112.064L52.8907 112.901L52.867 113.306V113.889L52.8433 114.88L52.8196 115.666V116.023L52.7959 116.253L52.8473 116.864V119.91L52.8236 120.187L52.7998 120.544L52.7485 121.433L52.6971 122.575L52.6457 123.464L52.5944 123.896L52.6457 124.201L52.7485 124.657L53.0765 124.987L53.5585 125.367L54.2935 125.546L54.7479 125.621L55.2024 125.724L55.6331 125.701L56.0638 125.47L56.4668 125.193L56.6684 125.117L56.8699 124.864L57.1228 124.332L57.3006 123.721L57.352 123.237L57.4033 122.706L57.4547 122.428L57.4033 122.325V121.766L57.4547 121.056V119.66L57.431 119.176V116.764L57.4547 116.257L57.4784 116.054L57.5021 115.749L57.4784 115.317L57.5021 114.809V114.198L57.4784 113.437L57.5021 112.854V112.624L57.4271 112.37L57.4784 112.116L57.4033 111.862L57.4547 111.557L57.4033 111.378L57.3796 111.2L57.431 111.097L57.5575 111.073L57.7353 110.997L57.9645 111.021L58.2173 111.073L58.3952 110.997L58.5216 111.021L58.6244 110.997L58.7508 111.049L58.901 110.974L59.0274 111.049L59.7861 110.997L59.9876 111.021L60.3433 110.97L60.9518 111.045L61.1533 110.993L61.3035 111.069V111.6L61.3548 112.54V115.229L61.3035 116.955V117.867L61.3272 118.882L61.3509 119.747V122.234L61.2995 122.539V122.995L61.2481 123.908L61.1217 124.566L61.0703 124.971L60.8925 125.375L60.6396 125.883L60.2603 126.593L59.7782 127.124L59.4739 127.505L59.1459 127.862L58.6639 128.14L58.3359 128.342L58.1581 128.521L57.9565 128.647L57.4745 128.878L57.0714 129.028L56.5656 129.207L56.2377 129.357L55.8583 129.433L55.6291 129.484L55.5027 129.56H55.3249L54.3133 129.536L54.3093 129.544Z" fill="var(--fill-0, #EEEAE2)"/>
<path id="Vector_10" d="M102.284 129.238L102.182 129.262L101.877 128.933L101.854 128.322L101.877 128.12L101.98 127.969L102.004 127.41L102.028 126.597L102.004 126.089L102.028 125.558V125.074L102.051 124.162V122.841L102.103 122.206V121.342L102.126 120.782V120.378L102.103 120.072L102.126 119.335V118.803L102.178 118.22V117.332L102.229 116.316L102.253 115.682L102.277 115.071L102.328 114.079L102.454 113.064L102.478 112.251L102.502 111.894L102.553 111.438L102.731 111.16L102.909 111.184L103.11 111.16L103.691 111.108L103.968 111.057L104.169 111.081H104.474L104.624 111.104L104.726 111.029L104.853 110.954L104.956 111.005L105.082 111.057L105.209 110.982H105.41L105.639 110.878L105.691 110.954L105.742 110.902L105.845 110.851L105.947 110.926H106.252L106.505 110.978L106.556 111.053V111.231L106.86 111.814L107.089 112.271L107.319 112.881L107.445 113.187L107.595 113.492L107.797 113.948L107.947 114.353V114.504L108.05 114.631L108.326 115.241L108.555 115.801L108.607 115.979L108.733 116.209L108.935 116.59L109.085 117.022L109.188 117.252L109.338 117.53L109.539 118.141L109.614 118.319L109.666 118.498L109.769 118.521L109.844 118.371L109.895 118.168L109.97 118.018L109.994 118.196L109.867 118.553L109.765 118.755H109.891L109.966 118.605L110.093 118.402L110.168 118.073L110.318 117.744L110.444 117.514L110.519 117.26L110.697 116.955L110.749 116.725L110.8 116.598L110.903 116.471L110.978 116.193L111.104 115.836L111.207 115.686L111.282 115.281L111.432 114.825L111.535 114.674L111.661 114.369L111.788 113.936L111.914 113.706L111.966 113.528L112.092 113.326L112.369 112.743L112.724 111.854L112.851 111.497L112.874 111.295L112.95 111.243L113.202 111.219L113.432 111.168L113.558 111.192L113.736 111.168L114.04 111.144H114.396L114.775 111.093L115.004 111.144L115.107 111.168L115.233 111.017L115.411 111.093L115.486 111.116L115.561 111.065L115.739 110.989L115.992 110.966L116.17 110.942L116.273 110.918L116.423 110.97L116.526 111.097H116.577L116.601 111.021V110.946H116.652L116.676 111.124V111.632L116.727 112.088L116.751 112.596L116.775 113L116.798 113.532L116.822 114.04V114.777L116.798 115.539L116.723 116.578L116.672 117.669V118.252L116.62 119.216L116.644 120.156L116.62 121.119L116.644 121.984V123.404L116.62 123.888V124.955L116.597 125.538L116.573 126.502L116.549 127.188V127.898L116.526 128.429L116.502 128.632L116.399 128.683L116.324 128.58H116.3L116.277 128.632L116.3 128.707V128.834L116.099 128.985L115.87 128.933L115.593 128.909L115.467 129.036L115.364 128.985H115.135L115.06 129.06L115.036 128.985L114.985 128.909H114.909L114.886 129.036H114.783L114.708 128.933L114.581 128.83L114.506 128.806L114.483 128.933L114.431 129.112L114.305 129.088L114.076 129.064L113.42 129.116L113.218 129.012H113.04L112.965 128.759L112.914 128.505V124.899L112.89 124.368L112.867 123.301V122.718L112.843 121.576L112.819 121.016V120.128L112.795 119.62L112.744 119.418L112.515 119.799L112.313 120.283L112.084 120.79L111.78 121.425L111.63 121.73L111.452 122.111L111.25 122.543L111.199 122.722L111.096 122.825L111.073 122.952L110.997 123.003L111.021 123.079L110.946 123.154L110.717 123.281L110.59 123.333L110.515 123.281L110.59 123.229V123.206L110.413 123.154L110.057 123.178L109.828 123.229L109.753 123.305L109.448 123.432L109.045 123.456H108.642L108.263 123.507L107.986 123.483L107.86 123.333L107.911 123.003L107.734 122.571L107.607 122.369L107.481 122.04L107.125 121.278L106.923 120.874L106.773 120.544L106.671 120.342L106.619 120.112L106.469 119.783L106.343 119.529H106.319V119.604L106.295 119.807L106.22 119.858L106.196 119.755L106.145 119.525L106.07 119.346H105.944L105.92 119.398V119.727L105.868 120.413L105.845 121.326L105.821 121.857L105.797 122.516V122.821L105.821 123.15L105.797 123.404V123.634L105.774 124.142L105.722 124.852L105.699 125.74L105.675 126.248V127.033L105.651 127.362L105.576 127.922L105.552 128.505L105.501 128.632H105.398L105.347 128.655L105.244 128.858L104.991 128.961L104.79 128.858L104.434 129.06L104.284 128.957L104.209 129.032L104.106 129.108H104.003L103.877 129.084L103.675 129.032L103.549 129.135L103.525 129.211L103.399 129.187L103.296 129.211L103.067 129.187L102.79 129.262L102.589 129.314H102.411L102.308 129.238H102.284Z" fill="var(--fill-0, #EEEAE2)"/>
<path id="Vector_11" d="M158.226 129.417L158.174 129.088L157.898 129.036L157.771 129.06L157.645 128.881L157.518 128.576L157.467 128.247L157.341 128.068L157.317 127.815V127.585L157.392 127.458V127.331L157.495 127.128V126.748L157.42 126.569L157.443 126.466V125.831L157.467 125.526V125.423L157.443 125.117V124.737L157.42 124.459L157.495 124.205L157.443 123.698V121.77L157.42 121.441L157.443 121.111V120.477L157.368 120.275L157.392 120.045L157.341 119.814L157.364 119.18L157.388 118.696L157.491 117.375L157.542 116.943V116.36L157.518 115.674V115.015L157.495 114.178V113.215L157.518 111.997L157.542 111.235L157.669 111.033L157.819 110.982L158.02 111.033L158.249 111.009H159.538L159.64 111.033L159.767 110.982L159.893 111.005L160.071 111.029L160.249 110.954L160.375 111.029L160.478 110.978L160.68 110.926L160.909 111.029H161.087L161.237 110.978L161.415 111.029L161.438 111.561L161.462 112.044V112.679L161.486 112.957L161.462 113.338L161.486 113.694V114.024L161.509 114.404L161.486 114.734L161.434 114.912L161.458 114.987H161.533L161.557 114.964V114.987L161.533 115.138L161.407 115.19L161.355 115.214L161.407 115.34L161.482 115.519L161.505 115.67V116.455L161.454 116.709L161.403 116.836L161.328 116.86L161.276 116.987V117.24L161.3 117.367L161.375 117.391L161.426 117.443V117.593L161.403 117.772H161.328L161.276 117.875V117.95L161.3 118.129L161.324 118.28L161.399 118.331V118.434L161.324 118.537V118.64L161.347 118.767L161.324 119.021V119.327L161.426 119.402L161.375 119.505V119.937L161.478 120.421L161.529 120.953L161.553 121.714L161.577 122.325V123.087L161.553 123.9V124.431L161.501 124.864V125.498L161.45 125.982L161.426 126.72L161.375 127.378L161.351 127.632L161.249 127.989L161.225 128.243L161.098 128.394L160.921 128.521L160.77 128.497L160.593 128.6L160.541 128.751L160.439 128.774L160.312 128.723L160.186 128.798H160.134L160.059 128.774L159.933 128.826L159.83 128.751L159.755 128.727L159.68 128.878L159.628 129.108V128.981L159.553 128.727H159.451L159.376 128.83L159.174 129.032L159.15 129.108L159.127 129.131L159.075 129.028L158.949 128.953L158.846 129.056L158.822 129.361L158.771 129.564H158.747L158.696 129.437V129.234L158.645 129.159L158.542 129.211L158.415 129.262L158.364 129.441L158.313 129.77L158.261 129.972L158.21 129.996V129.413L158.226 129.417Z" fill="var(--fill-0, #EEEAE2)"/>
<path id="Vector_12" d="M202.988 129.135V128.957H202.759L202.482 128.881H201.977L201.724 128.806L201.672 128.501L201.724 128.172L201.826 127.969L201.803 127.842L201.751 127.791L201.803 127.513L201.728 127.208V126.724L201.779 126.621L201.728 126.442L201.751 126.188L201.7 125.935L201.724 125.831L201.649 125.526L201.625 124.915L201.601 124.483V123.9L201.578 123.114V122.301L201.554 121.845V121.108L201.578 120.524V119.434L201.601 117.252L201.625 116.086V115.4L201.7 114.182L201.803 113.167V112.354L201.826 112.048V111.565L201.85 111.386L201.925 111.132L202.328 111.057L202.581 111.081L202.759 111.057L202.961 111.033L203.237 110.958H203.466L203.518 111.009L203.62 110.985L203.723 111.009L203.826 110.985L204.004 110.934H204.233L204.636 110.859L204.838 110.882L204.988 110.831L205.138 110.855H205.442L205.924 110.803H206.355L207.872 110.855L208.275 110.878L208.959 110.954L209.591 111.104L210.172 111.335L210.603 111.588L211.006 111.866L211.437 112.195L211.666 112.425L211.994 112.679L212.424 113.036L212.729 113.341L213.033 113.722L213.412 114.254L213.843 114.94L214.199 115.725L214.428 116.411L214.554 117.022L214.704 117.708L214.831 118.343L214.882 118.926L214.985 119.561L215.036 120.322L215.06 121.187L214.985 121.695L214.91 122.254L214.783 122.865L214.681 123.297L214.479 123.983L214.124 124.768L213.894 125.252L213.768 125.53L213.515 125.911L213.313 126.395L212.934 126.851L212.658 127.18L212.507 127.434L212.152 127.711L212.002 127.941L211.725 128.144L211.346 128.398L211.195 128.449L210.943 128.576L210.741 128.703L210.563 128.727L210.287 128.905L209.856 129.008L209.275 129.135L208.694 129.211L208.188 129.262L207.935 129.238V129.187L208.038 129.084L208.141 128.905L208.038 128.83L207.86 128.854L207.71 128.878H207.584L207.481 129.028L207.532 129.179V129.254L207.382 129.278L206.853 129.302L206.726 129.278L206.675 129.227L206.75 129.203L206.952 129.179L207.078 129.155L206.876 129.131L206.647 129.108L206.671 129.004L206.695 128.981H206.797L207.05 129.032L207.228 128.957L206.952 128.933L206.624 128.909L206.422 128.961L205.738 128.909H205.561L205.359 128.961L205.181 128.937H204.98L204.703 128.862L204.553 128.937L204.276 128.913L203.921 128.937L203.719 128.913L203.593 128.838L203.569 128.763L203.368 128.913L203.115 128.989L203.091 129.167V129.318L203.04 129.342L203.016 129.139L202.988 129.135ZM206.805 125.661L207.287 125.609L208.097 125.506L208.73 125.252L209.386 124.975L209.816 124.645L210.069 124.368L210.271 124.062L210.5 123.658L210.828 122.694L211.132 121.603L211.207 120.564L211.184 119.93L211.132 119.652L211.109 119.093L210.982 118.331L210.907 118.002L210.832 117.748L210.555 117.038L209.923 116.225L208.635 115.158L208.307 115.007H208.078L207.849 114.932L207.216 114.857L206.256 114.781H205.727L205.652 114.833L205.628 114.908L205.604 115.567L205.58 116.53V117.927L205.557 118.763L205.533 119.906L205.509 120.564L205.458 120.715L205.482 120.969V121.706L205.458 122.317L205.434 122.52L205.359 122.646L205.335 122.797V123.662L205.312 123.939L205.387 124.193L205.335 124.296L205.284 124.526V125.034L205.387 125.466V125.593L205.41 125.669L205.486 125.72L205.889 125.744L206.825 125.669L206.805 125.661Z" fill="var(--fill-0, #EEEAE2)"/>
<path id="Vector_13" d="M230.072 129.135L229.87 129.112L229.594 129.135L229.191 129.112L228.914 129.187L228.764 129.112H228.511L228.108 129.187L227.958 129.163L227.729 129.139L227.602 129.064L227.499 129.04L227.448 128.838L227.523 128.532L227.547 128.152L227.598 127.644L227.622 126.958V126.553L227.646 125.843L227.622 125.514L227.673 125.387V124.879L227.697 124.32V123.507L227.748 122.619V121.096L227.772 120.409V119.573L227.796 119.089V118.303L227.744 117.415L227.721 116.475L227.669 115.586V115.103L227.721 114.162L227.772 113.706L227.796 113.274V112.386L227.772 111.981V111.295L227.95 111.243L228.053 111.14L228.179 111.164L228.408 111.14L228.764 111.116H229.04L229.167 111.093H229.621L229.724 111.069H229.827L230.08 111.045L230.408 111.021L230.558 110.946L230.834 110.97L231.289 110.918L231.72 110.894L231.921 110.819H232.174L234.122 110.922L234.478 110.946L234.782 110.97L235.138 111.045L235.62 111.021H236.833L236.936 110.997L237.165 111.021H237.568L238.022 111.045L238.326 111.069L238.477 111.045L238.579 111.196L238.682 111.374L238.733 111.628L238.884 111.807L239.034 112.465L238.959 112.77L238.907 112.949V113.076L239.057 113.583L239.133 113.71L238.982 113.813L238.781 113.917L238.552 114.246L238.247 114.575L237.943 114.805L237.765 114.781L237.615 114.706L237.512 114.73L237.362 114.706L236.959 114.682L236.58 114.706L236.453 114.781H235.718L232.735 114.833H231.775L231.751 115.011V116.685L231.727 117.395L231.751 117.7L231.854 117.752L232.763 117.728H234.304L235.063 117.78H235.339L235.568 117.855L235.77 117.831H236.023L236.276 117.855L236.453 117.907L236.655 117.958L236.781 117.907H236.983L237.236 118.161L237.287 118.363L237.311 118.617L237.489 118.819L237.386 119.021L237.512 119.224L237.461 119.374L237.485 119.628L237.588 119.807L237.485 119.957L237.433 120.16L237.41 120.362L237.386 120.513L237.489 120.588L237.564 120.663L237.489 120.766L237.362 120.79L237.184 120.917L237.007 121.223L237.082 121.373V121.449L236.777 121.524L236.6 121.726H236.169L235.055 121.675H234.193L233.359 121.698L232.245 121.75L231.613 121.825L231.411 121.952L231.388 122.103L231.336 122.635L231.313 123.598L231.289 124.257L231.265 124.741L231.289 125.121L231.795 125.145H232.352L232.605 125.197H233.34L233.644 125.248L234.276 125.324L234.885 125.3H236.655L236.983 125.248L237.386 125.272L237.789 125.248L238.093 125.3L238.196 125.451L238.271 125.653L238.295 125.855L238.445 125.982L238.421 126.109L238.319 126.236L238.421 126.339L238.473 126.518L238.37 126.569L238.295 126.593V126.668L238.421 126.771L238.473 126.95L238.37 127.204L238.319 127.533L238.216 127.711L238.394 127.838L238.496 127.914L238.445 127.989L238.243 128.064L238.014 128.215L237.939 128.445L237.963 128.596L237.939 128.671L237.789 128.747L237.588 128.822L237.437 128.925L236.955 128.901L236.426 128.953H234.833L234.529 129.004L234.328 129.056L234 129.08H232.609L231.775 129.104H230.712L230.257 129.127L230.155 129.231H230.103L230.08 129.127L230.072 129.135Z" fill="var(--fill-0, #EEEAE2)"/>
<path id="Vector_14" d="M254.626 129.29L254.196 129.187L253.84 129.008H253.611L253.508 128.957L253.18 128.83L252.651 128.576L252.323 128.398L252.121 128.247L251.793 128.045L251.564 127.866L251.335 127.739L251.157 127.561L250.904 127.358L250.702 127.128L250.726 127.025L250.675 126.898V126.771L250.75 126.668L250.9 126.541L251.003 126.414V126.288L251.054 126.212L251.232 126.034L251.307 126.01L251.331 125.859L251.434 125.756L251.457 125.653L251.509 125.578L251.71 125.399L251.813 125.145L251.939 125.094L252.014 124.864L252.117 124.661L252.244 124.586L252.267 124.435L252.319 124.384L252.394 124.233L252.595 124.209L252.722 124.312H252.773L252.749 124.209L252.9 124.134L253.405 124.463L254.038 124.895L254.52 125.173L254.974 125.248L255.504 125.272L256.16 125.018L256.563 124.764L256.918 124.181L257.195 123.345L257.171 122.837L257.068 122.635L256.942 122.357L256.839 122.052L256.736 121.925L256.61 121.774L256.432 121.671L256.306 121.544L256.128 121.314L255.95 121.111L255.749 120.933L255.622 120.782L255.444 120.655L254.662 119.997L254.156 119.465L253.8 119.061L253.093 118.224L252.587 117.336L252.437 116.931L252.287 116.32L252.236 115.61L252.259 114.67L252.362 114.266L252.69 113.631L252.892 113.302L253.069 113.048L253.196 112.869L253.552 112.489L253.879 112.16L254.207 111.882L254.611 111.576L255.116 111.247L255.772 111.017L256.128 110.866L256.685 110.688L257.748 110.561L258.937 110.613L259.645 110.688L259.898 110.74L260.048 110.815L260.071 110.918L259.996 110.942L259.945 110.993L260.02 111.097L260.147 111.148L260.123 111.35L260.048 111.477L260.151 111.834H260.048L260.099 111.91L260.123 112.037V112.239L260.198 112.39V112.465L260.095 112.489L260.071 112.592L260.222 112.743L260.147 112.818L260.222 112.893L260.198 113.02V113.147L260.071 113.199V113.25L260.147 113.326L260.297 113.401L260.372 113.476V113.528L260.297 113.552L260.17 113.603L260.194 113.806V114.008L260.119 114.111V114.389L260.044 114.718L259.969 114.821L259.791 114.694L259.182 114.515L258.728 114.44H257.74L257.132 114.642L256.954 114.793L256.752 114.944L256.523 115.198L256.42 115.757L256.725 116.265L257.254 116.772L257.938 117.431L258.368 117.812L258.771 118.244L259.479 118.954L260.186 119.818L260.818 120.683L261.02 121.115L261.348 122.055L261.526 122.968L261.577 123.579L261.526 124.213L261.221 125.177L260.968 125.708L260.439 126.621L259.985 127.128L259.708 127.358L259.53 127.588L258.823 128.199L258.317 128.528L257.788 128.806L257.155 129.036L256.649 129.187L256.246 129.262L255.338 129.338L254.603 129.286L254.626 129.29Z" fill="var(--fill-0, #EEEAE2)"/>
<path id="Vector_15" d="M274.404 129.417L274.352 129.088L274.076 129.036L273.949 129.06L273.823 128.881L273.696 128.576L273.645 128.247L273.518 128.068L273.495 127.815V127.585L273.57 127.458V127.331L273.673 127.128V126.748L273.597 126.569L273.621 126.466V125.831L273.645 125.526V125.423L273.621 125.117V124.737L273.597 124.459L273.673 124.205L273.621 123.698V121.77L273.597 121.441L273.621 121.111V120.477L273.546 120.275L273.57 120.045L273.518 119.814L273.542 119.18L273.566 118.696L273.669 117.375L273.72 116.943V116.36L273.696 115.674V115.015L273.673 114.178V113.215L273.696 111.997L273.72 111.235L273.846 111.033L273.997 110.982L274.198 111.033L274.427 111.009H275.715L275.818 111.033L275.945 110.982L276.071 111.005L276.249 111.029L276.427 110.954L276.553 111.029L276.656 110.978L276.857 110.926L277.087 111.029H277.264L277.415 110.978L277.592 111.029L277.616 111.561L277.64 112.044V112.679L277.664 112.957L277.64 113.338L277.664 113.694V114.024L277.687 114.404L277.664 114.734L277.612 114.912L277.636 114.987H277.711L277.735 114.964V114.987L277.711 115.138L277.584 115.19L277.533 115.214L277.584 115.34L277.66 115.519L277.683 115.67V116.455L277.632 116.709L277.581 116.836L277.505 116.86L277.454 116.987V117.24L277.478 117.367L277.553 117.391L277.604 117.443V117.593L277.581 117.772H277.505L277.454 117.875V117.95L277.478 118.129L277.502 118.28L277.577 118.331V118.434L277.502 118.537V118.64L277.525 118.767L277.502 119.021V119.327L277.604 119.402L277.553 119.505V119.937L277.656 120.421L277.707 120.953L277.731 121.714L277.754 122.325V123.087L277.731 123.9V124.431L277.679 124.864V125.498L277.628 125.982L277.604 126.72L277.553 127.378L277.529 127.632L277.426 127.989L277.403 128.243L277.276 128.394L277.098 128.521L276.948 128.497L276.77 128.6L276.719 128.751L276.616 128.774L276.49 128.723L276.363 128.798H276.312L276.237 128.774L276.111 128.826L276.008 128.751L275.933 128.727L275.858 128.878L275.806 129.108V128.981L275.731 128.727H275.629L275.553 128.83L275.352 129.032L275.328 129.108L275.304 129.131L275.253 129.028L275.127 128.953L275.024 129.056L275 129.361L274.949 129.564H274.925L274.874 129.437V129.234L274.822 129.159L274.72 129.211L274.593 129.262L274.542 129.441L274.49 129.77L274.439 129.972L274.388 129.996V129.413L274.404 129.417Z" fill="var(--fill-0, #EEEAE2)"/>
<path id="Vector_16" d="M296.481 129.798L295.797 129.671H295.544L295.188 129.52L294.959 129.417L294.73 129.342L294.374 129.163L294.098 129.088L293.971 128.937L293.794 128.913L293.718 128.838L293.466 128.636L293.011 128.203L292.707 127.874L292.529 127.799L292.426 127.648L292.15 127.291L291.948 126.886L291.845 126.656L291.743 126.478L291.49 126.172L291.312 125.665L291.134 125.284L291.059 125.054L291.083 124.903L291.031 124.776L290.956 124.673L290.905 124.443L290.83 124.241L290.779 123.836L290.628 123.253L290.577 122.722L290.502 122.468L290.478 121.936L290.277 121.048L290.15 120.413L290.202 120.108V119.196L290.277 118.867L290.253 118.41L290.356 118.105L290.379 117.954L290.356 117.677L290.379 117.423L290.328 117.32L290.431 117.141L290.482 116.963L290.407 116.887L290.51 116.685V116.304L290.613 116.05L290.688 115.848L290.79 115.491L290.842 115.214L290.992 114.809L291.142 114.25L291.32 114.047L291.521 113.691L291.826 113.131L291.952 112.854L292.102 112.75L292.659 112.191L293.039 111.886L293.442 111.529L293.797 111.299L294.683 110.866L295.263 110.716L295.366 110.74L295.643 110.664L295.998 110.589L296.228 110.486L296.405 110.51L296.556 110.458L296.757 110.482L296.959 110.406H297.235L297.385 110.355H297.587L297.788 110.331H298.192L298.974 110.383L299.152 110.406L299.353 110.482L299.985 110.609L300.163 110.66L300.491 110.712L300.768 110.815L301.297 111.045L301.779 111.323L302.388 111.727L302.617 111.906L302.669 112.033L302.617 112.183L302.514 112.413L302.337 112.54L302.234 112.667L302.21 112.869L302.084 112.945L301.981 113.02V113.199L301.878 113.349L301.7 113.453L301.724 113.556L301.7 113.579H301.649L301.546 113.556L301.495 113.734L301.546 113.885H301.345L301.27 114.012L301.143 114.115L301.12 114.266L300.969 114.317L300.843 114.571L300.74 114.674L300.665 114.777L300.539 114.853L300.389 115.003H300.238L300.187 115.027L299.859 114.797L299.503 114.567L299.175 114.416L298.468 114.266L297.836 114.242L297.686 114.19L297.709 114.166V114.143L297.583 114.119L297.227 114.17L296.824 114.222L296.674 114.274L296.571 114.4L296.089 114.551L295.56 114.88L295.18 115.237L294.801 115.999L294.525 116.864L294.398 117.395L294.374 117.851L294.323 118.383L294.272 118.867L294.22 119.144L294.272 119.727L294.323 120.16V120.338L294.374 121.076L294.501 121.71L294.604 122.194L294.706 122.599L294.884 123.13L295.086 123.69L295.287 124.122L295.564 124.681L296.145 125.137L296.599 125.316L297.053 125.518L297.559 125.669L297.887 125.693L298.215 125.669L298.595 125.617L298.847 125.514L299.1 125.312L299.33 125.058L299.353 124.879L299.33 124.32L299.278 123.456L299.203 122.694V122.186L299.152 122.008L298.923 121.984L297.101 122.186L296.342 122.289L296.141 122.266L296.117 122.214L296.168 122.163L296.192 122.111L296.089 121.96L296.113 121.857V121.754L296.089 121.576L296.164 121.298L296.141 121.02V120.87L296.164 120.766L296.141 120.588L296.164 120.386L296.188 120.283L296.164 120.104V119.799L296.113 119.648L296.164 119.089L296.216 118.986L296.164 118.807L296.216 118.577L296.239 118.502L296.595 118.351L297.33 118.2L298.215 118.149L299.124 118.125H299.78L300.033 118.101L300.641 118.125H301.297L301.448 118.2L301.598 118.097L301.799 118.121L302.052 118.069L302.23 118.093L302.333 118.042L302.51 118.065H302.661L302.89 118.014L303.091 118.038L303.166 118.24L303.218 118.851L303.194 119.612V120.398L303.143 121.464L303.119 122.226V122.682L303.17 123.495L303.194 124.003V124.764L303.091 125.272L303.068 125.804L302.993 126.161L302.815 126.264L302.665 126.696L302.487 127.053L302.435 127.128L302.333 127.331L302.131 127.608L301.93 127.862L301.527 128.294L300.946 128.778L300.566 129.008L300.44 129.135L300.187 129.286L299.883 129.465L299.756 129.615H299.555L299.353 129.667H299.175L298.974 129.794L298.67 129.845L298.468 129.794H298.239L297.911 129.818L297.634 129.766L297.358 129.818L297.053 129.766L296.801 129.841H296.65L296.627 129.917L296.477 129.79L296.481 129.798Z" fill="var(--fill-0, #EEEAE2)"/>
<path id="Vector_17" d="M326.397 129.163L326.295 128.834L326.144 128.81L325.892 128.913L325.741 128.862L325.639 128.937L325.512 128.885L325.311 128.707L324.576 127.362L324.22 126.577L323.943 126.093L323.691 125.562L323.185 124.622L322.703 123.757L322.525 123.352L322.169 122.694L321.766 121.956L321.49 121.5L320.881 120.536L320.45 119.672L320.071 118.986L319.818 118.581L319.541 118.149L319.518 118.097H319.466L319.443 118.248V119.898L319.419 120.33L319.443 120.889L319.391 121.524V122.869L319.368 123.352V124.344L319.344 124.876L319.241 125.002L319.293 125.153L319.316 125.256L319.293 125.359L319.241 125.51L319.293 125.712L319.269 125.839L319.217 126.042L319.016 126.117L318.992 126.244L319.067 126.347L319.119 126.422L319.194 126.399L319.245 126.375H319.269V126.399L319.245 126.526L319.095 126.577L318.917 126.629L318.842 126.807L318.917 126.934L318.941 126.958L318.992 127.033L319.016 127.085L318.965 127.287L318.988 127.414L319.04 127.39L319.115 127.442L319.063 127.569L318.988 127.696L319.04 127.949L319.063 128.203V128.306L319.166 128.283L319.241 128.485V128.687L319.115 128.739L318.965 128.814L318.735 128.838L318.459 128.889L318.257 128.913L318.107 128.965L317.906 128.989L317.755 129.04L317.653 129.016L317.451 129.119L317.25 129.27L317.072 129.143L316.997 129.119L316.894 129.322H316.819L316.744 129.27L316.669 129.322L316.467 129.298H316.238L316.088 129.274L315.961 129.326L315.835 129.274L315.685 129.171V128.814L315.811 128.536L315.989 128.461L316.092 128.386L316.116 128.31L316.04 128.207L315.811 128.231L315.685 127.953L315.709 127.573V127.116L315.657 126.811V126.379L315.709 125.796L315.657 125.185L315.709 124.626L315.685 123.967V123.563L315.661 122.523L315.712 121.433L315.689 120.417L315.637 118.997L315.661 117.93L315.685 116.99L315.709 116.126V115.543L315.732 115.162L315.784 114.476L315.835 114.071L315.859 113.817L315.91 113.183L315.934 112.75L316.009 111.862V111.406L316.033 111.331L316.159 111.279L316.412 111.227L316.665 111.279L316.918 111.255H317.119L317.269 111.279L317.396 111.227L317.7 111.331L317.803 111.255L318.004 111.231L318.234 111.208L318.435 111.259H318.637L318.739 111.184L318.889 111.208L318.992 111.231L319.095 111.18H319.245L319.423 111.204L319.601 111.18L319.727 111.204L319.877 111.128L320.154 111.331L320.557 111.89L321.114 112.727L321.695 113.667L321.948 114.123L322.225 114.555L322.754 115.467L323.615 116.887L324.098 117.776L324.426 118.462L324.908 119.247L325.161 119.68L325.465 120.164L325.516 120.14V119.862L325.54 119.66L325.516 119.533L325.54 119.279L325.564 119.001V118.799L325.512 118.597L325.536 118.268L325.461 118.065L325.587 117.558L325.512 117.304V117.026L325.564 116.697L325.54 116.368L325.564 116.114L325.587 115.912L325.564 115.761L325.587 115.178L325.639 113.655L325.662 112.869L325.639 112.132L325.714 111.572L325.737 111.342L325.99 111.267H327.053L327.203 111.243L327.354 111.295L327.504 111.243L327.733 111.267L327.934 111.192H328.164L328.519 111.14L328.721 111.164L328.922 111.14H329.175L329.377 111.116L329.527 111.168L329.653 111.192V111.243L329.63 111.648V112.639L329.578 113.552L329.555 114.289L329.503 115.202L329.479 115.709L329.428 116.574L329.404 117.03L329.381 117.562L329.329 118.323L329.306 119.136V119.62L329.282 120.433L329.258 121.219L329.234 122.182V122.69L329.286 123.428V124.316L329.262 124.876L329.238 125.308V125.966L329.215 126.323V126.553L329.191 127.113L329.116 127.898V128.532L329.041 128.889L328.891 128.941L328.713 128.965L328.484 128.941L328.334 129.044L328.258 129.02L328.132 128.945L328.029 128.921L327.954 129.024L327.903 129.076L327.879 129.024L327.678 128.973L327.476 129.175L327.35 129.151L327.223 129L327.097 128.977L326.994 129.127H326.868L326.816 129L326.792 128.977L326.741 128.953L326.666 129.08L326.615 129.334L326.563 129.564H326.488L326.413 129.207L326.397 129.163Z" fill="var(--fill-0, #EEEAE2)"/>
</g>
</g>
<defs>
<clipPath id="clip0_0_26">
<rect width="334" height="130" fill="white"/>
</clipPath>
</defs>
</svg>
