<svg preserveAspectRatio="none" width="100%" height="100%" overflow="visible" style="display: block;" viewBox="0 0 104.281 26.5968" fill="none" xmlns="http://www.w3.org/2000/svg">
<g id="Group">
<path id="Vector" d="M1.26958 25.7969L1.19703 25.3363L0.810114 25.2636L0.634791 25.3L0.459467 25.0515L0.284144 24.6273L0.211597 24.1668L0.0362737 23.9183L0 23.5668V23.2457L0.102776 23.0699V22.8942L0.241825 22.6094V22.0761L0.139049 21.8277L0.175323 21.6883V20.8035L0.211597 20.3793V20.24L0.175323 19.8158V19.2825L0.139049 18.8947L0.241825 18.5371L0.169277 17.8281V15.1315L0.133004 14.6709L0.169277 14.2104V13.3257L0.0665018 13.0408L0.102776 12.7197L0.0302281 12.3985L0.0665018 11.5138L0.102776 10.8411L0.241825 8.99891L0.314373 8.39898V7.58696L0.278099 6.6295V5.7084L0.241825 4.53884V3.19355L0.278099 1.49073L0.314373 0.430251L0.489696 0.145437L0.701293 0.0727184L0.985437 0.145437L1.30585 0.109078H3.10745L3.2465 0.145437L3.42182 0.0727184L3.59715 0.109078L3.84502 0.145437L4.09289 0.0363592L4.26821 0.145437L4.40726 0.0727184L4.6914 0L5.01182 0.139377H5.25969L5.47129 0.0666586L5.71916 0.139377L5.75543 0.884741L5.79171 1.55739V2.44213L5.82798 2.82996L5.79171 3.36323L5.82798 3.86014V4.32069L5.86426 4.85396L5.82798 5.31451L5.75543 5.56296L5.79171 5.66598H5.89448L5.93076 5.62962V5.66598L5.89448 5.87807L5.71916 5.95079L5.64661 5.98715L5.71916 6.16289L5.82194 6.41134L5.85821 6.62344V7.72027L5.78566 8.07781L5.71312 8.25354L5.60429 8.2899L5.53175 8.46564V8.82317L5.56802 8.99891L5.6708 9.03527L5.74334 9.10798V9.32008L5.70707 9.56853H5.59825L5.5257 9.70791V9.81699L5.56197 10.0654L5.59825 10.2775L5.70707 10.3503V10.4896L5.59825 10.629V10.7684L5.63452 10.9441L5.59825 11.2956V11.7198L5.7373 11.8289L5.66475 11.9682V12.5682L5.8038 13.2408L5.87635 13.9862L5.91262 15.0467L5.94889 15.895V16.9555L5.91262 18.0887V18.8341L5.84007 19.434V20.3187L5.76753 20.9914L5.73125 22.0216L5.6587 22.9427L5.62243 23.2941L5.48338 23.7911L5.44711 24.1486L5.27178 24.3607L5.02391 24.5364L4.81232 24.5001L4.56445 24.6394L4.4919 24.8515L4.35285 24.8879L4.17753 24.8152L4.0022 24.9182H3.92966L3.82083 24.8818L3.64551 24.9545L3.50646 24.8455L3.39764 24.8091L3.29487 25.0212L3.22232 25.3424V25.1666L3.11954 24.8152H2.98049L2.87167 24.9545L2.58753 25.2394L2.55125 25.3484L2.51498 25.3848L2.44243 25.2454L2.26711 25.1424L2.12806 25.2818L2.09179 25.706L2.01924 25.9908H1.98296L1.91042 25.815V25.5302L1.83787 25.4212L1.69882 25.4939L1.5235 25.5666L1.45095 25.815L1.3784 26.2756L1.30585 26.5604L1.23331 26.5968V25.7847L1.26958 25.7969Z" fill="var(--fill-0, #F4F2EC)"/>
<path id="Vector_2" d="M33.2448 26.2877H31.2618L31.0139 26.1483L30.3066 25.9726L29.5267 25.6211L28.7831 25.1242L27.8279 24.591L27.2294 24.0577L26.909 23.6699L26.5583 23.282L26.2016 22.573L25.8812 22.0034L25.7059 21.4338L25.4217 20.4763L25.3129 19.3067V18.0645L25.2767 17.1434L25.2041 16.6828V15.586L25.2404 14.8043L25.3129 13.4953L25.3492 12.647V11.7259L25.3855 10.629L25.458 9.24736V8.21719L25.4943 7.50818V6.33863L25.5306 5.7387L25.6031 5.10241L25.6757 3.79348L25.7482 3.12084L25.8208 1.98764L25.857 1.1029V0.60599L26.0686 0.393894L26.4253 0.357535L26.5281 0.393894L26.776 0.357535L26.9876 0.430253L27.1629 0.321176L27.3745 0.393894H27.5135L27.6526 0.496912L27.7251 0.460553L27.9005 0.321176L28.112 0.393894L28.4325 0.357535L28.7831 0.430253L28.9947 0.290876H29.1338L29.2728 0.363595L29.557 0.327236L29.8048 0.290876L30.089 0.327236H30.2643L30.5484 0.399954L30.9716 0.363595L31.2195 0.399954L31.292 0.860504V1.89068L31.2558 3.06024L31.2195 3.62986V4.44189L31.1832 5.82354L31.147 6.92037V7.41728L31.1107 7.73846L31.1832 8.58684V12.8409L31.147 13.2287L31.1107 13.7256L31.0381 14.9679L30.9656 16.5616L30.893 17.8039L30.8205 18.4038L30.893 18.828L31.0321 19.4643L31.4916 19.9249L32.1626 20.4581L33.1904 20.7066L33.8252 20.8157L34.46 20.955L35.0585 20.9187L35.657 20.5975L36.2253 20.2097L36.5094 20.1066L36.7936 19.7552L37.1442 19.0098L37.3921 18.1614L37.4646 17.4888L37.5372 16.7434L37.6097 16.3556L37.5372 16.2162V15.4345L37.6097 14.4407V12.4894L37.5735 11.8167V8.44746L37.6097 7.73846L37.646 7.45364L37.6823 7.02945L37.646 6.42952L37.6823 5.72052V4.87214L37.646 3.81166L37.6823 2.99358V2.67241L37.5735 2.31487L37.646 1.9634L37.5372 1.61193L37.6097 1.18774L37.5372 0.939282L37.5009 0.690828L37.5735 0.551451L37.7488 0.515092L37.9966 0.412074L38.3171 0.448433L38.6677 0.521151L38.9156 0.418134L39.0909 0.454493L39.23 0.418134L39.4053 0.490852L39.6169 0.381774L39.7922 0.490852L40.8502 0.418134L41.1343 0.454493L41.6301 0.381774L42.4765 0.490852L42.7606 0.418134L42.9722 0.521151V1.26652L43.0447 2.57545V6.33257L42.9722 8.7444V10.023L43.0085 11.441L43.0447 12.647V16.1193L42.9722 16.5434V17.1797L42.8996 18.4584L42.7243 19.3795L42.6518 19.9491L42.4039 20.5187L42.0533 21.2277L41.5212 22.2215L40.8502 22.9669L40.427 23.5002L39.9675 23.9971L39.2965 24.3849L38.837 24.6697L38.5891 24.9182L38.305 25.0939L37.6339 25.4151L37.0656 25.6272L36.3583 25.8756L35.8988 26.0877L35.3668 26.1968L35.0464 26.2695L34.8711 26.3726H34.6232L33.2085 26.3362L33.2448 26.2877Z" fill="var(--fill-0, #F4F2EC)"/>
<path id="Vector_3" d="M58.4732 26.0756L58.3342 26.112L57.911 25.6514L57.8747 24.8031L57.911 24.5182L58.05 24.3061L58.0863 23.5244L58.1226 22.3912L58.0863 21.6822L58.1226 20.9369V20.2642L58.1588 18.9856V17.1434L58.2314 16.2586V15.0527L58.2677 14.271V13.7014L58.2314 13.2772L58.2677 12.247V11.5016L58.3402 10.6896V9.44734L58.4128 8.02933L58.449 7.14459L58.4853 6.29621L58.5579 4.91456L58.7332 3.49655L58.7695 2.36335L58.8057 1.86644L58.8783 1.23015L59.1261 0.842322L59.374 0.878682L59.6582 0.842322L60.4683 0.769604L60.8552 0.696885L61.1393 0.733245H61.5625L61.7741 0.769604L61.9132 0.666586L62.0885 0.557508L62.2276 0.630227L62.4029 0.702945L62.5782 0.599927H62.8623L63.1828 0.46055L63.2553 0.569628L63.3279 0.49691L63.4669 0.424191L63.606 0.527209H64.0291L64.3798 0.599927L64.4523 0.702945V0.9514L64.8755 1.76342L65.196 2.39971L65.5164 3.24809L65.6917 3.67228L65.9033 4.09647L66.1874 4.73276L66.399 5.30239V5.51448L66.5381 5.69022L66.925 6.5386L67.2454 7.32032L67.318 7.56878L67.4933 7.88995L67.7774 8.42322L67.989 9.02315L68.1281 9.34432L68.3397 9.73215L68.6238 10.5805L68.7266 10.829L68.7991 11.0774L68.9382 11.1138L69.047 10.9017L69.1196 10.6169L69.2284 10.4048L69.2647 10.6533L69.0893 11.1502L68.9503 11.435H69.1256L69.2344 11.2229L69.4098 10.9381L69.5186 10.4775L69.7302 10.017L69.9055 9.69579L70.0083 9.34432L70.2561 8.92013L70.3287 8.59896L70.4012 8.42322L70.5403 8.24748L70.6491 7.85965L70.8244 7.36274L70.9635 7.15065L71.0663 6.58102L71.2779 5.94473L71.4169 5.73264L71.5922 5.30845L71.7675 4.70852L71.9429 4.38735L72.0154 4.13889L72.1907 3.85408L72.5777 3.04206L73.0734 1.79978L73.2487 1.30287L73.285 1.01806L73.3878 0.94534L73.7445 0.908981L74.0649 0.836262L74.2402 0.872622L74.4881 0.836262L74.9113 0.799903H75.407L75.939 0.727185L76.2594 0.799903L76.3985 0.836262L76.5738 0.624167L76.8217 0.733245L76.9245 0.769604L77.0333 0.696885L77.2812 0.593868L77.6318 0.557508L77.8797 0.521149L78.0187 0.48479L78.2303 0.557508L78.3694 0.733245H78.4419L78.4782 0.624167V0.515089H78.5507L78.587 0.763544V1.47255L78.6596 2.10884L78.6958 2.81784L78.7321 3.38747L78.7684 4.13283L78.8047 4.84184V5.87201L78.7684 6.93249L78.6596 8.38686L78.587 9.90789V10.7199L78.5145 12.0652L78.5507 13.3741L78.5145 14.7194L78.5507 15.9253V17.9069L78.5145 18.5796V20.0703L78.4782 20.8823L78.4419 22.2276L78.4056 23.1851V24.1789L78.3694 24.9242L78.3331 25.2091L78.194 25.2818L78.0852 25.1424H78.0489L78.0127 25.2151L78.0489 25.3181V25.4939L77.7648 25.706L77.4444 25.6333L77.0575 25.5969L76.8821 25.7726L76.7431 25.6999H76.4227L76.3139 25.809L76.2776 25.6999L76.205 25.5969H76.0962L76.0599 25.7726H75.9209L75.8121 25.6333L75.6367 25.4939L75.534 25.4575L75.4977 25.6333L75.4252 25.8817L75.2498 25.8453L74.9294 25.809L74.0105 25.8817L73.7263 25.7423H73.4785L73.3696 25.3848L73.2971 25.0333V20.0036L73.2608 19.2583L73.2245 17.7675V16.9555L73.1883 15.3618L73.152 14.58V13.3378L73.1157 12.6288L73.0432 12.344L72.7228 12.8772L72.4386 13.5499L72.1182 14.2589L71.695 15.1436L71.4834 15.5678L71.2355 16.1011L70.9514 16.701L70.8788 16.9495L70.7398 17.0888L70.7035 17.2646L70.6007 17.3373L70.637 17.4403L70.5342 17.5494L70.2138 17.7251L70.0385 17.7978L69.9357 17.7251L70.0385 17.6524V17.616L69.7906 17.5433L69.2949 17.5797L68.9745 17.6524L68.8717 17.7554L68.4485 17.9312L67.8802 17.9675H67.3119L66.7799 18.0402L66.393 18.0039L66.2177 17.7918L66.2902 17.3312L66.0423 16.7313L65.867 16.4465L65.6917 15.9859L65.196 14.9255L64.9118 14.3558L64.7002 13.8953L64.5612 13.6105L64.4886 13.2893L64.277 12.8287L64.1017 12.4773H64.0654V12.5864L64.0291 12.8712L63.9203 12.9439L63.8841 12.8045L63.8115 12.4833L63.7027 12.2349H63.5274L63.4911 12.3076V12.7681L63.4185 13.7256L63.3823 15.0042L63.346 15.7496L63.3097 16.6707V17.0949L63.346 17.5554L63.3097 17.9069V18.2281L63.2734 18.9371L63.2009 19.9309L63.1646 21.1732L63.1283 21.8822V22.979L63.0921 23.4396L62.9893 24.2213L62.953 25.0333L62.8805 25.2091H62.7414L62.6689 25.2454L62.5298 25.5302L62.1731 25.6696L61.889 25.5302L61.3933 25.8151L61.1817 25.6757L61.0728 25.7787L60.9338 25.8878H60.7947L60.6194 25.8514L60.3353 25.7787L60.1599 25.9181L60.1237 26.0271L59.9483 25.9908L59.8093 26.0271L59.4889 25.9908L59.102 26.0999L58.8178 26.1726H58.5699L58.4309 26.0696L58.4732 26.0756Z" fill="var(--fill-0, #F4F2EC)"/>
<path id="Vector_4" d="M99.6016 25.7969L99.5291 25.3363L99.1422 25.2636L98.9668 25.3L98.7915 25.0515L98.6162 24.6273L98.5436 24.1668L98.3683 23.9183L98.332 23.5668V23.2457L98.4348 23.0699V22.8942L98.5739 22.6094V22.0761L98.4711 21.8277L98.5074 21.6883V20.8035L98.5436 20.3793V20.24L98.5074 19.8158V19.2825L98.4711 18.8947L98.5739 18.5371L98.5013 17.8281V15.1315L98.465 14.6709L98.5013 14.2104V13.3257L98.3985 13.0408L98.4348 12.7197L98.3623 12.3985L98.3985 11.5138L98.4348 10.8411L98.5739 8.99891L98.6464 8.39898V7.58696L98.6101 6.6295V5.7084L98.5739 4.53884V3.19355L98.6101 1.49073L98.6464 0.430251L98.8217 0.145437L99.0333 0.0727184L99.3175 0.145437L99.6379 0.109078H101.439L101.579 0.145437L101.754 0.0727184L101.929 0.109078L102.177 0.145437L102.425 0.0363592L102.6 0.145437L102.739 0.0727184L103.023 0L103.344 0.139377H103.592L103.803 0.0666586L104.051 0.139377L104.087 0.884741L104.124 1.55739V2.44213L104.16 2.82996L104.124 3.36323L104.16 3.86014V4.32069L104.196 4.85396L104.16 5.31451L104.087 5.56296L104.124 5.66598H104.227L104.263 5.62962V5.66598L104.227 5.87807L104.051 5.95079L103.979 5.98715L104.051 6.16289L104.154 6.41134L104.19 6.62344V7.72027L104.118 8.07781L104.045 8.25354L103.936 8.2899L103.864 8.46564V8.82317L103.9 8.99891L104.003 9.03527L104.075 9.10798V9.32008L104.039 9.56853H103.93L103.858 9.70791V9.81699L103.894 10.0654L103.93 10.2775L104.039 10.3503V10.4896L103.93 10.629V10.7684L103.967 10.9441L103.93 11.2956V11.7198L104.069 11.8289L103.997 11.9682V12.5682L104.136 13.2408L104.208 13.9862L104.245 15.0467L104.281 15.895V16.9555L104.245 18.0887V18.8341L104.172 19.434V20.3187L104.1 20.9914L104.063 22.0216L103.991 22.9427L103.954 23.2941L103.815 23.7911L103.779 24.1486L103.604 24.3607L103.356 24.5364L103.144 24.5001L102.896 24.6394L102.824 24.8515L102.685 24.8879L102.51 24.8152L102.334 24.9182H102.262L102.153 24.8818L101.978 24.9545L101.839 24.8455L101.73 24.8091L101.627 25.0212L101.554 25.3424V25.1666L101.452 24.8152H101.313L101.204 24.9545L100.92 25.2394L100.883 25.3484L100.847 25.3848L100.774 25.2454L100.599 25.1424L100.46 25.2818L100.424 25.706L100.351 25.9908H100.315L100.242 25.815V25.5302L100.17 25.4212L100.031 25.4939L99.8555 25.5666L99.783 25.815L99.7104 26.2756L99.6379 26.5604L99.5653 26.5968V25.7847L99.6016 25.7969Z" fill="var(--fill-0, #F4F2EC)"/>
</g>
</svg>
