<svg preserveAspectRatio="none" width="100%" height="100%" overflow="visible" style="display: block;" viewBox="0 0 163.354 53.8536" fill="none" xmlns="http://www.w3.org/2000/svg">
<g id="Frame 164">
<g id="moji">
<path id="Vector" d="M125.496 21.432C125.464 21.384 125.368 21.288 125.208 21.144C125.064 21 124.904 20.848 124.728 20.688C124.568 20.544 124.448 20.456 124.368 20.424C125.488 19.704 126.512 18.768 127.44 17.616C128.384 16.464 129.168 15.2 129.792 13.824C129.408 13.536 128.984 13.24 128.52 12.936C128.056 12.632 127.64 12.376 127.272 12.168L128.04 10.992C128.408 11.184 128.792 11.416 129.192 11.688C129.608 11.944 129.992 12.2 130.344 12.456C130.6 11.72 130.808 10.976 130.968 10.224C131.128 9.472 131.224 8.728 131.256 7.992H128.232C127.912 9.08 127.512 10.112 127.032 11.088C126.568 12.048 126.056 12.92 125.496 13.704C125.448 13.656 125.336 13.584 125.16 13.488C124.984 13.376 124.808 13.272 124.632 13.176C124.456 13.08 124.336 13.024 124.272 13.008C125.312 11.584 126.104 10 126.648 8.256C127.192 6.496 127.568 4.672 127.776 2.784H125.136V1.392H133.848V2.784H129.192C129.096 4.096 128.904 5.36 128.616 6.576H132.768C132.752 8.896 132.416 10.992 131.76 12.864C131.12 14.72 130.256 16.36 129.168 17.784C128.08 19.208 126.856 20.424 125.496 21.432ZM121.92 21.792V7.848C121.072 9.384 120.224 10.664 119.376 11.688C119.264 11.544 119.088 11.376 118.848 11.184C118.624 10.976 118.432 10.832 118.272 10.752C118.8 10.16 119.344 9.408 119.904 8.496C120.48 7.568 121.024 6.584 121.536 5.544C122.048 4.504 122.488 3.496 122.856 2.52C123.24 1.544 123.504 0.704 123.648 0L125.112 0.36C124.92 1.064 124.672 1.816 124.368 2.616C124.064 3.416 123.728 4.232 123.36 5.064V21.792H121.92ZM135.624 21.528C135.608 21.336 135.56 21.088 135.48 20.784C135.416 20.496 135.352 20.272 135.288 20.112H137.688C138.008 20.112 138.24 20.056 138.384 19.944C138.528 19.816 138.6 19.6 138.6 19.296V0.432001H140.016V19.656C140.016 20.904 139.32 21.528 137.928 21.528H135.624ZM134.544 15.888V3.264H135.936V15.888H134.544Z" fill="#7B8A8A"/>
<path id="Vector_2" d="M102.456 21.8399C102.424 21.6159 102.368 21.3679 102.288 21.0959C102.224 20.8239 102.152 20.5999 102.072 20.4239H104.568C104.904 20.4239 105.144 20.3599 105.288 20.2319C105.432 20.1199 105.504 19.9039 105.504 19.5839V17.6159H97.1284V16.3919H105.504V14.6639H95.2324V13.5119H105.504V11.8079H97.1044V10.6559H105.504V9.02387H99.0724V4.96787H105.504V3.50387H95.9524V2.25587H105.504V0.119873H107.04V2.25587H116.64V3.50387H107.04V4.96787H113.448V9.02387H107.04V10.6559H114.312V13.5119H117.216V14.6639H114.312V17.6159H107.04V19.8479C107.04 21.1759 106.296 21.8399 104.808 21.8399H102.456ZM107.04 16.3919H112.8V14.6639H107.04V16.3919ZM107.04 13.5119H112.8V11.8079H107.04V13.5119ZM100.536 7.87187H105.504V6.11987H100.536V7.87187ZM107.04 7.87187H112.008V6.11987H107.04V7.87187Z" fill="#7B8A8A"/>
<path id="Vector_3" d="M72.5522 11.76V10.2C73.1122 10.2 73.9042 10.208 74.9282 10.224C75.9522 10.224 77.1042 10.232 78.3842 10.248C79.6642 10.248 80.9842 10.248 82.3442 10.248C83.7042 10.248 85.0162 10.248 86.2802 10.248C87.5442 10.248 88.6722 10.248 89.6642 10.248C90.6562 10.232 91.4082 10.216 91.9202 10.2V11.76C91.3922 11.744 90.6322 11.736 89.6402 11.736C88.6642 11.72 87.5522 11.712 86.3042 11.712C85.0722 11.696 83.7842 11.688 82.4402 11.688C81.1122 11.688 79.8082 11.696 78.5282 11.712C77.2642 11.712 76.1122 11.72 75.0722 11.736C74.0322 11.736 73.1922 11.744 72.5522 11.76Z" fill="#7B8A8A"/>
<path id="Vector_4" d="M51.696 20.4241C51.664 20.3281 51.584 20.1921 51.456 20.0161C51.328 19.8241 51.2 19.6401 51.072 19.4641C50.944 19.2721 50.84 19.1441 50.76 19.0801C53.144 18.1841 54.928 16.9601 56.112 15.4081C57.296 13.8401 57.928 11.7841 58.008 9.24007C56.936 9.24007 55.888 9.24007 54.864 9.24007C53.84 9.24007 52.904 9.24007 52.056 9.24007C51.224 9.24007 50.552 9.24807 50.04 9.26407C49.528 9.26407 49.232 9.26407 49.152 9.26407L49.104 7.72807C49.184 7.72807 49.48 7.73607 49.992 7.75207C50.52 7.75207 51.2 7.75207 52.032 7.75207C52.88 7.75207 53.816 7.75207 54.84 7.75207C55.88 7.75207 56.936 7.75207 58.008 7.75207V1.87207H59.592V7.75207C60.872 7.75207 62.072 7.75207 63.192 7.75207C64.312 7.75207 65.232 7.75207 65.952 7.75207C66.688 7.73607 67.104 7.72807 67.2 7.72807V9.26407C67.12 9.24807 66.712 9.24007 65.976 9.24007C65.256 9.24007 64.328 9.24007 63.192 9.24007C62.072 9.24007 60.864 9.24007 59.568 9.24007C59.504 11.9921 58.832 14.2721 57.552 16.0801C56.272 17.8881 54.32 19.3361 51.696 20.4241Z" fill="#7B8A8A"/>
<path id="Vector_5" d="M25.272 16.536C25.208 16.456 25.088 16.336 24.912 16.176C24.752 16.016 24.584 15.856 24.408 15.696C24.232 15.536 24.096 15.424 24 15.36C25.008 14.672 25.944 13.824 26.808 12.816C27.688 11.808 28.448 10.76 29.088 9.67203C29.728 8.56803 30.2 7.54403 30.504 6.60003L32.016 7.15203C31.616 8.28803 31.08 9.43203 30.408 10.584C29.752 11.72 28.992 12.8 28.128 13.824C27.264 14.848 26.312 15.752 25.272 16.536ZM42.456 15.792C42.2 15.184 41.856 14.496 41.424 13.728C40.992 12.96 40.504 12.184 39.96 11.4C39.432 10.616 38.896 9.88803 38.352 9.21603C37.808 8.52803 37.304 7.96803 36.84 7.53603L38.04 6.60003C38.552 7.08003 39.088 7.65603 39.648 8.32803C40.224 8.98403 40.784 9.69603 41.328 10.464C41.872 11.216 42.376 11.976 42.84 12.744C43.304 13.496 43.704 14.208 44.04 14.88C43.96 14.912 43.808 14.992 43.584 15.12C43.376 15.232 43.16 15.352 42.936 15.48C42.728 15.608 42.568 15.712 42.456 15.792ZM43.632 4.92003C43.408 4.60003 43.112 4.24803 42.744 3.86403C42.392 3.46403 42.024 3.08803 41.64 2.73603C41.256 2.38403 40.912 2.09603 40.608 1.87203L41.4 1.17603C41.688 1.38403 42.032 1.68003 42.432 2.06402C42.832 2.43202 43.216 2.81603 43.584 3.21603C43.968 3.60003 44.264 3.92803 44.472 4.20003L43.632 4.92003ZM41.736 6.67203C41.528 6.33603 41.248 5.96803 40.896 5.56803C40.544 5.16803 40.184 4.78403 39.816 4.41603C39.448 4.04803 39.112 3.75203 38.808 3.52803L39.624 2.85603C39.896 3.06403 40.224 3.36803 40.608 3.76803C40.992 4.15203 41.368 4.55203 41.736 4.96803C42.12 5.36803 42.408 5.70403 42.6 5.97603L41.736 6.67203Z" fill="#7B8A8A"/>
</g>
<path id="Vector_6" d="M8.74228e-08 37L163 37M162.646 37.1464L146.646 53.1464" stroke="#FFC100" stroke-width="2"/>
</g>
</svg>
