<svg preserveAspectRatio="none" width="100%" height="100%" overflow="visible" style="display: block;" viewBox="0 0 163.354 54.8536" fill="none" xmlns="http://www.w3.org/2000/svg">
<g id="Frame 166">
<g id="moji3">
<path id="Vector" d="M103.133 21.432C103.101 21.384 103.005 21.288 102.845 21.144C102.701 21 102.541 20.848 102.365 20.688C102.205 20.544 102.085 20.456 102.005 20.424C103.125 19.704 104.149 18.768 105.077 17.616C106.021 16.464 106.805 15.2 107.429 13.824C107.045 13.536 106.621 13.24 106.157 12.936C105.693 12.632 105.277 12.376 104.909 12.168L105.677 10.992C106.045 11.184 106.429 11.416 106.829 11.688C107.245 11.944 107.629 12.2 107.981 12.456C108.237 11.72 108.445 10.976 108.605 10.224C108.765 9.472 108.861 8.728 108.893 7.992H105.869C105.549 9.08 105.149 10.112 104.669 11.088C104.205 12.048 103.693 12.92 103.133 13.704C103.085 13.656 102.973 13.584 102.797 13.488C102.621 13.376 102.445 13.272 102.269 13.176C102.093 13.08 101.973 13.024 101.909 13.008C102.949 11.584 103.741 10 104.285 8.256C104.829 6.496 105.205 4.672 105.413 2.784H102.773V1.392H111.485V2.784H106.829C106.733 4.096 106.541 5.36 106.253 6.576H110.405C110.389 8.896 110.053 10.992 109.397 12.864C108.757 14.72 107.893 16.36 106.805 17.784C105.717 19.208 104.493 20.424 103.133 21.432ZM99.5567 21.792V7.848C98.7087 9.384 97.8607 10.664 97.0127 11.688C96.9007 11.544 96.7247 11.376 96.4847 11.184C96.2607 10.976 96.0687 10.832 95.9087 10.752C96.4367 10.16 96.9807 9.408 97.5407 8.496C98.1167 7.568 98.6607 6.584 99.1727 5.544C99.6847 4.504 100.125 3.496 100.493 2.52C100.877 1.544 101.141 0.704 101.285 0L102.749 0.36C102.557 1.064 102.309 1.816 102.005 2.616C101.701 3.416 101.365 4.232 100.997 5.064V21.792H99.5567ZM113.261 21.528C113.245 21.336 113.197 21.088 113.117 20.784C113.053 20.496 112.989 20.272 112.925 20.112H115.325C115.645 20.112 115.877 20.056 116.021 19.944C116.165 19.816 116.237 19.6 116.237 19.296V0.432001H117.653V19.656C117.653 20.904 116.957 21.528 115.565 21.528H113.261ZM112.181 15.888V3.264H113.573V15.888H112.181Z" fill="#7B8A8A"/>
<path id="Vector_2" d="M80.0927 21.8399C80.0607 21.6159 80.0047 21.3679 79.9247 21.0959C79.8607 20.8239 79.7887 20.5999 79.7087 20.4239H82.2047C82.5407 20.4239 82.7807 20.3599 82.9247 20.2319C83.0687 20.1199 83.1407 19.9039 83.1407 19.5839V17.6159H74.7647V16.3919H83.1407V14.6639H72.8687V13.5119H83.1407V11.8079H74.7407V10.6559H83.1407V9.02387H76.7087V4.96787H83.1407V3.50387H73.5887V2.25587H83.1407V0.119873H84.6767V2.25587H94.2767V3.50387H84.6767V4.96787H91.0847V9.02387H84.6767V10.6559H91.9487V13.5119H94.8527V14.6639H91.9487V17.6159H84.6767V19.8479C84.6767 21.1759 83.9327 21.8399 82.4447 21.8399H80.0927ZM84.6767 16.3919H90.4367V14.6639H84.6767V16.3919ZM84.6767 13.5119H90.4367V11.8079H84.6767V13.5119ZM78.1727 7.87187H83.1407V6.11987H78.1727V7.87187ZM84.6767 7.87187H89.6447V6.11987H84.6767V7.87187Z" fill="#7B8A8A"/>
<path id="Vector_3" d="M58.8067 20.064V3.23999H66.1267C67.7107 3.23999 68.9107 3.60799 69.7267 4.34399C70.5587 5.07999 70.9747 6.17599 70.9747 7.63199C70.9747 9.08799 70.5587 10.184 69.7267 10.92C68.9107 11.656 67.7107 12.024 66.1267 12.024H60.2707V20.064H58.8067ZM60.2707 10.608H66.0067C67.1587 10.608 68.0147 10.368 68.5747 9.88799C69.1507 9.40799 69.4387 8.65599 69.4387 7.63199C69.4387 6.60799 69.1507 5.85599 68.5747 5.37599C68.0147 4.89599 67.1587 4.65599 66.0067 4.65599H60.2707V10.608Z" fill="#7B8A8A"/>
<path id="Vector_4" d="M45.3536 20.0639V3.26392H46.8176V18.6479H56.1056V20.0639H45.3536Z" fill="#7B8A8A"/>
</g>
<path id="Vector_5" d="M163.354 38L0.353553 38M0.707107 38.1464L16.7071 54.1464" stroke="#FFC100" stroke-width="2"/>
</g>
</svg>
